<svg width="488" height="412" viewBox="0 0 488 412" fill="none" xmlns="http://www.w3.org/2000/svg">
<path d="M373.834 184.52C371.976 178.057 370.583 171.303 367.66 165.313C360.401 150.416 350.452 137.325 339.341 124.958C332.083 116.872 324.563 109.471 315.117 104.051C310.384 101.336 305.439 98.7762 301.316 95.2789C292.18 87.5209 281.476 82.5936 270.443 78.99C255.325 74.053 239.482 73.4347 223.63 75.3476C217.571 76.0819 211.348 78.0721 205.493 77.2896C198.389 76.3331 192.224 77.9272 185.778 79.9657C176.623 82.8641 169.916 89.5014 162.473 94.9504C155.098 100.351 148.062 106.273 141.317 112.437C136.294 117.036 131.958 122.388 126.935 127.818C126.693 126.35 126.403 125.325 126.374 124.292C126.151 115.142 125.774 105.993 125.88 96.844C125.929 92.3611 126.916 87.888 127.535 82.98C126.016 82.1588 123.403 80.7386 121.535 79.7242C119.231 80.0913 117.296 80.7097 115.379 80.642C111.615 80.5068 107.85 79.6566 104.095 79.7049C90.9711 79.8595 77.8475 80.2363 64.7142 80.5841C61.6075 80.6614 58.9751 81.4632 58.6944 85.3084C58.1331 92.9698 57.2524 100.622 56.933 108.293C55.8685 133.46 55.0555 158.647 54.0199 183.824C53.1779 204.181 51.9584 224.518 51.2712 244.874C50.7196 261.211 51.5616 277.635 50.0905 293.876C49.3647 301.827 45.0773 309.556 41.7673 317.121C40.9157 319.063 37.8476 320.812 35.5539 321.198C26.7371 322.686 17.8429 323.874 8.92932 324.618C1.632 325.227 1.71915 324.889 1.71915 331.98C1.71915 336.144 1.21593 340.299 1.04172 344.463C0.673954 353.399 0.480334 362.336 0.0157832 371.263C-0.216492 375.736 2.13532 375.833 5.72592 375.91C13.3523 376.065 21.0851 376.248 28.547 377.639C35.9991 379.031 43.161 381.9 50.7196 384.199C50.7874 384.499 51.0196 385.108 51.0583 385.726C51.5906 393.088 51.9875 400.459 52.694 407.802C52.8295 409.232 54.1747 410.546 54.9587 411.918C56.062 410.971 57.3104 410.14 58.2105 409.029C58.888 408.198 59.2751 407.048 59.5267 405.986C61.5301 397.658 58.3653 388.421 64.0754 380.692C65.7981 378.364 66.6596 375.369 68.5178 373.205C70.5599 370.819 73.2698 368.973 76.7733 371.021C77.8379 371.64 78.9896 372.413 80.1606 372.529C86.2869 373.118 92.4324 373.456 98.5587 374.007C100.794 374.21 103.591 374.045 105.091 375.292C110.289 379.601 115.399 376.538 120.76 376.403C120.644 375.089 120.499 374.306 120.509 373.524C120.596 367.939 120.499 362.336 120.915 356.771C121.148 353.689 122.899 350.655 122.861 347.612C122.541 322.145 121.748 296.678 121.573 271.201C121.496 259.704 120.925 248.053 125.309 236.933C127.003 232.633 127.787 227.986 129.316 223.61C132.287 215.117 135.578 206.596 142.73 200.712C150.376 194.413 158.496 188.674 166.606 182.965C168.725 181.477 171.803 181.4 174.029 180.008C180.155 176.192 185.885 171.719 192.117 168.086C199.502 163.787 207.583 161.855 216.235 163.198C218.907 163.613 221.607 163.961 224.297 164.173C234.837 165.004 245.415 165.468 255.896 166.714C260.252 167.236 264.51 169.149 268.643 170.849C274.382 173.216 280.111 175.699 285.541 178.685C288.686 180.414 291.038 183.544 294.086 185.496C305.845 193.041 314.788 203.215 322.289 214.818C323.314 216.402 324.689 217.765 325.918 219.252C332.847 215.137 341.538 217.938 347.945 212.625C350.346 210.635 353.065 208.799 355.939 207.64C364.659 204.113 368.473 196.094 373.457 189.167C374.241 188.066 374.231 185.95 373.825 184.52H373.834ZM32.7377 345.149C30.7827 341.014 29.4568 338.221 28.1309 335.429C28.276 335.381 29.6406 334.908 31.0052 334.434L30.8794 334.54C32.0408 336.579 33.4635 338.521 34.2377 340.685C34.5571 341.584 33.5216 342.975 32.7377 345.149ZM50.9907 353.167C48.4647 351.853 45.9386 350.54 43.4126 349.226C44.4965 348.327 45.687 347.342 46.8871 346.347C48.3292 348.134 50.0034 350.201 51.6681 352.269C51.4358 352.568 51.2132 352.878 50.981 353.177L50.9907 353.167ZM44.9418 333.825L44.1772 327.41C44.8353 327.314 45.4935 327.217 46.1516 327.121C46.5677 328.976 46.9838 330.83 47.4 332.685C48.9098 329.903 49.8776 327.381 54.6006 331.304C50.768 332.309 47.8549 333.062 44.9418 333.825ZM65.1981 347.052C64.5981 347.177 63.998 347.303 63.398 347.429C62.6044 343.187 61.8205 338.946 61.1527 335.4C61.685 332.492 62.1495 329.961 62.7883 326.483C68.6629 333.719 62.6915 340.666 65.1884 347.052H65.1981ZM64.8885 135.325C63.5529 128.919 62.798 122.572 66.1176 115.626C70.1534 123.181 65.4885 129.122 64.8885 135.325ZM69.8534 112.93C71.9729 105.114 74.0923 97.2981 76.2022 89.4724C76.9184 89.6656 77.6249 89.8589 78.3411 90.0521C76.1635 97.8681 73.9763 105.694 71.7987 113.51C71.1502 113.316 70.5018 113.114 69.8534 112.92V112.93ZM80.9929 357.302C80.4897 357.38 79.9863 357.457 79.4928 357.534C79.2508 353.689 71.3824 355.071 74.2665 349.158C76.4538 349.274 78.6217 349.38 81.4187 349.525C81.2832 351.94 81.1381 354.626 80.9929 357.302ZM82.6866 100.341C83.1318 97.1821 83.0543 93.791 84.3028 90.9989C84.7576 89.9748 88.3966 90.3806 91.0581 90.0811C88.4837 94.4383 86.4998 97.8004 84.5061 101.153C83.8964 100.882 83.2866 100.612 82.6769 100.341H82.6866ZM89.0063 342.144C88.9773 342.221 88.9483 342.298 88.9193 342.376C89.558 343.023 90.6323 343.651 90.6517 344.318C90.8066 349.573 90.7388 354.829 90.7388 360.095C87.2643 358.954 86.2868 349.11 88.929 342.376C88.9096 342.356 88.8806 342.327 88.8613 342.308C88.8903 342.25 88.9193 342.202 88.9483 342.163C88.2031 342.318 87.4578 342.463 86.7126 342.617C87.6611 336.299 88.5999 330.077 89.5387 323.855C89.9839 323.903 90.4291 323.961 90.884 324.01C91.3098 330.135 93.0616 336.347 88.9483 342.154C88.9677 342.154 88.987 342.154 89.0063 342.144ZM89.8774 175.284C91.9485 166.463 94.0197 157.642 96.0908 148.831C96.7876 148.996 97.4844 149.16 98.1909 149.324L91.9873 175.796C91.2808 175.622 90.5839 175.458 89.8774 175.284ZM96.7876 316.116L98.6459 294.775C98.0845 298.485 97.5328 302.108 96.9811 305.73C96.8456 305.692 96.7199 305.653 96.5844 305.605C95.936 298.987 95.2778 292.359 94.6003 285.5C95.4714 284.553 97.049 282.824 98.762 280.949C98.9652 281.075 99.4007 281.345 99.7975 281.587C100.136 277.722 100.475 273.848 100.804 269.984C101.501 270.042 102.198 270.1 102.895 270.167C102.053 278.35 101.21 286.524 100.368 294.707C105.585 298.127 107.25 302.185 104.898 305.093C103.427 302.001 102.014 299.006 100.301 295.393C99.5846 302.339 98.8685 309.296 98.1523 316.242C97.6974 316.203 97.2425 316.165 96.7876 316.126V316.116ZM104.646 351.525C103.959 351.593 103.282 351.66 102.595 351.728C102.217 348.704 101.849 345.67 101.414 342.144C101.375 342.125 100.465 341.825 98.5007 341.158C100.669 340.54 101.743 340.231 102.072 340.134C102.294 335.12 102.507 330.57 102.711 325.981C102.149 325.874 101.201 325.691 100.252 325.507C100.727 324.686 101.123 323.807 101.695 323.063C102.362 322.213 103.195 321.488 103.959 320.705C102.924 319.981 101.898 319.256 100.456 318.242C101.946 317.566 103.775 316.725 106.495 315.479C105.846 328.067 105.246 339.796 104.646 351.535V351.525ZM103.427 110.148C97.3683 108.331 102.304 116.766 98.3845 117.712C96.2457 117.229 93.952 116.708 91.2808 116.099C90.1291 119.075 89.0354 121.896 87.9418 124.717C86.7901 119.191 91.3872 114.833 90.3322 108.785C90.5355 108.524 92.0938 107.442 92.0164 106.505C91.5034 100.989 91.755 100.573 98.5394 100.902C97.0393 102.312 95.5391 103.723 93.8551 105.298V115.384C95.0939 114.727 97.1747 113.954 97.107 113.606C96.1972 108.959 99.8459 105.752 100.678 101.665C101.201 99.0854 103.533 96.7184 103.553 94.2451C103.582 90.3613 105.488 90.6318 108.46 90.8733C106.698 97.6169 105.072 103.858 103.437 110.148H103.427ZM116.599 167.439C116.386 168.125 113.628 168.009 112.36 168.222C113.424 164.888 114.121 162.695 114.818 160.492C114.46 160.299 114.102 160.096 113.753 159.903C114.992 159.42 116.231 158.927 118.012 158.232C117.567 161.662 117.47 164.676 116.599 167.439ZM117.518 145.73C115.07 141.779 115.302 135.644 118.389 133.798C118.08 138.088 117.809 141.798 117.518 145.73ZM237.101 118.891C233.995 117.674 232.814 121.606 230.124 121.5C228.304 120.611 227.423 122.301 226.165 122.949C225.226 122.949 224.278 122.949 223.339 122.949C222.817 123.113 222.304 123.277 221.781 123.432C214.784 126.234 206.518 124.388 200.102 129.354C196.579 129.586 193.027 129.064 189.756 131.325C187.714 132.736 186.485 133.982 186.64 136.658C186.814 139.682 188.788 140.291 191.053 140.803C191.711 140.948 192.379 141.035 193.056 141.112C195.147 141.344 196.327 142.281 196.182 144.609C196.047 146.725 194.701 146.822 193.046 147.237C186.223 148.947 178.897 149.343 173.226 154.3C166.441 157.005 162.164 163.449 155.466 166.28C154.324 167.11 153.182 167.932 152.05 168.763L147.482 171.178C145.662 171.854 144.811 171.497 144.52 169.284C143.794 163.739 144.007 158.28 145.13 152.831C147.956 153.305 150.521 152.619 152.505 150.599C154.247 148.831 156.908 146.773 152.582 144.793C148.082 141.682 144.975 144.387 141.946 147.372C140.949 148.184 139.952 148.986 138.955 149.797C136.062 152.29 133.139 154.744 130.293 157.285C128.484 158.898 126.713 160.067 124.545 157.884C123.983 157.043 123.422 156.193 122.861 155.353C121.031 144.117 128.842 138.571 135.878 132.166C142.73 125.934 150.947 122.06 158.563 117.152C160.702 115.77 162.27 113.896 163.606 111.771C167.612 112.312 170.574 110.302 173.342 107.79C182.71 103.52 188.159 94.0036 197.508 89.714C199.976 89.3951 202.367 88.8734 204.37 87.2407C205.251 87.1441 206.131 87.0474 207.022 86.9412C207.97 86.9218 208.919 86.9025 209.867 86.8832C218.616 86.574 227.326 85.5982 236.114 85.7625C242.473 85.8784 248.648 86.2745 254.609 88.5739C256.584 90.825 259.148 89.6173 261.481 89.7526C263.987 91.2887 266.775 91.2308 269.562 91.1245C279.927 97.0276 290.883 101.675 301.829 106.341C302.09 110.109 297.832 111.655 298.519 116.157C289.847 108.099 280.798 106.322 270.811 108.148C264.975 100.467 255.993 99.9839 247.709 98.9598C243.818 98.4767 238.331 96.6025 235.33 101.984C229.136 105.645 222.081 105.877 215.248 106.979C214.745 107.172 214.242 107.355 213.738 107.549C209.257 109.404 204.786 111.259 200.305 113.114C194.885 111.442 190.917 115.2 186.388 116.852C184.791 117.442 182.033 117.577 182.72 119.761C183.456 122.099 185.972 120.746 187.936 120.727C192.824 120.678 195.863 116.543 200.295 115.751C202.541 115.645 204.796 115.539 207.041 115.423C208.154 115.22 209.257 115.027 210.37 114.824L217.774 113.539C220.368 113.867 222.662 113.133 224.694 111.529C227.985 111.365 231.324 110.805 234.537 111.22C236.124 111.433 238.873 110.737 239.482 113.432C240.005 115.722 239.744 117.877 237.101 118.862V118.891ZM248.735 128.465C248.609 128.775 248.483 129.084 248.357 129.393C246.102 128.775 243.847 128.147 240.915 127.345C250.119 121.722 251.154 121.509 253.574 124.292C251.212 124.784 248.802 125.287 245.076 126.069C247.109 127.403 247.922 127.934 248.735 128.465ZM325.734 131.992C324.127 135.653 321.34 132.6 319.095 132.407C317.846 132.301 316.665 131.586 315.349 131.818C297.154 126.784 278.359 125.354 259.768 122.688C257.368 122.34 255.035 122.079 252.974 120.814C251.048 119.625 247.293 120.244 247.263 117.558C247.225 114.176 251.415 115.403 253.361 113.906C256.332 111.452 259.545 113.007 262.545 113.597C270.752 115.22 278.979 116.669 287.292 117.596C290.902 119.287 294.744 117.162 298.412 118.157C302.671 119.403 307.142 119.577 311.439 120.688C315.069 121.925 319.056 122.263 322.221 124.553C324.631 126.301 327.215 128.649 325.744 131.992H325.734ZM339.941 142.039C340.735 143.44 341.945 145.566 343.271 147.914C339.235 148.783 335.819 149.517 332.054 150.329C334.783 147.459 337.261 144.851 339.941 142.039ZM340.793 202.297C338.083 198.906 335.306 195.64 332.838 192.143C332.267 191.341 332.315 189.273 332.934 188.674C333.622 188.008 335.886 187.805 336.419 188.375C337.928 189.979 338.983 192.056 340.087 194.017C340.696 195.099 341.2 196.239 341.703 197.379C341.867 197.756 342.042 198.142 342.216 198.51C343.426 197.708 344.635 196.916 345.835 196.114C347.103 198.452 346.397 199.302 340.793 202.287V202.297ZM347.113 164.328C349.078 162.753 351.042 161.178 353.21 159.439C354.488 161.294 355.61 162.917 357.198 165.217H348.12C347.791 164.917 347.452 164.628 347.123 164.328H347.113ZM352.204 195.061C351.855 194.577 351.517 194.094 351.168 193.621C355.397 190.587 359.636 187.563 363.866 184.53C364.224 185.032 364.582 185.525 364.94 186.027C360.692 189.042 356.443 192.056 352.194 195.061H352.204Z" fill="#2D00F7"/>
</svg>
