<svg width="874" height="26" viewBox="0 0 874 26" fill="none" xmlns="http://www.w3.org/2000/svg">
<path fill-rule="evenodd" clip-rule="evenodd" d="M795.136 2.13556C799.892 2.16887 804.684 2.26881 799.828 2.35764C794.696 2.35208 794.797 2.24659 795.136 2.13556Z" fill="white"/>
<path fill-rule="evenodd" clip-rule="evenodd" d="M811.52 2.00232C818.888 1.98011 817.706 2.12445 823.24 2.13555C819.804 2.25769 810.384 2.1189 811.52 2.00232Z" fill="white"/>
<path fill-rule="evenodd" clip-rule="evenodd" d="M844.326 2.31259C845.361 2.14737 857.631 2.32913 865.411 2.22449C864.595 2.37319 851.904 2.29607 844.326 2.31259Z" fill="white"/>
<path fill-rule="evenodd" clip-rule="evenodd" d="M738 25C745.578 25.0333 750.242 25.1221 752.048 25.2665C747.942 25.1665 738.715 25.161 738 25Z" fill="white"/>
<path fill-rule="evenodd" clip-rule="evenodd" d="M293.874 0.540771C303.789 0.585184 285.618 0.662907 293.874 0.67401C292.188 0.773939 280.541 0.696217 282.182 0.585185C285.59 0.562979 294.259 0.635148 293.874 0.540771Z" fill="white"/>
<path fill-rule="evenodd" clip-rule="evenodd" d="M22.1768 0.00224396C22.8274 0.118827 21.3154 0.196551 15.1392 0.179896C14.4886 0.0633133 16.0006 -0.0144108 22.1768 0.00224396Z" fill="white"/>
<path fill-rule="evenodd" clip-rule="evenodd" d="M366.495 0.674009C371.361 0.646251 374.055 0.579631 378.197 0.54077C389.01 0.685111 411.854 0.374223 420.367 0.629595C387.369 0.64625 362.151 0.657354 331.353 0.674009C333.882 0.585184 342.551 0.562977 350.651 0.57408C354.702 0.585183 358.605 0.601837 361.528 0.607388C364.451 0.624043 366.385 0.646251 366.495 0.674009Z" fill="white"/>
<path fill-rule="evenodd" clip-rule="evenodd" d="M307.949 0.540768C316.334 0.551872 316.517 0.407532 324.334 0.407532C321.227 0.557424 310.643 0.562975 307.949 0.718419C301.901 0.707316 311.157 0.640697 307.949 0.540768Z" fill="white"/>
<path fill-rule="evenodd" clip-rule="evenodd" d="M602.015 1.17839C605.983 1.10622 607.834 0.989636 616.072 1.00074C613.561 1.10067 608.961 1.16174 602.015 1.17839Z" fill="white"/>
<path fill-rule="evenodd" clip-rule="evenodd" d="M506 1.53929C517.427 1.31168 547.08 1.42827 562.209 1.27283C546.997 1.52265 523.841 1.40605 506 1.53929Z" fill="white"/>
<path fill-rule="evenodd" clip-rule="evenodd" d="M873.497 15.0023C874.116 14.7606 874.155 14.3991 873.703 14.0986C873.716 14.0986 873.729 14.0939 873.742 14.0915C873.755 14.0869 873.761 14.0845 873.774 14.0798C873.794 14.0728 873.813 14.0634 873.832 14.0563C873.858 14.0399 873.89 14.0235 873.923 14.0047C869.389 14.0047 864.525 14.0047 859.482 14.0047C856.386 14.0047 853.174 14.0047 849.943 14.0047C843.487 14.0047 836.953 14.0047 831.09 14.0047C808.149 14.0047 785.349 14 761.847 14.0023C759.132 14.0023 760.931 14.0023 758.551 14.0023C741.324 14.0023 718.705 14.0023 699.201 14.0023C685.289 14.0023 671.887 14.0023 657.982 14.0023C641.832 14.0023 629.668 14.0047 620.058 14.007C607.5 14.007 593.259 14.0117 580.495 14.007C578.032 14.007 578.56 14.007 573.904 14.007C570.66 14.007 570.621 14.007 568.95 14.007C569.099 14.007 570.795 14.007 568.95 14.007C578.18 14.007 582.579 14.007 590.383 14.007C592.621 14.007 593.537 14.007 596.981 14.007C614.904 14.007 635.82 14.0023 659.626 14C682.555 14 706.393 14 722.278 14C726.051 14 724.478 14 727.232 14C735.797 14 743.382 14 753.604 14C760.796 14 766.865 14 775.036 14C791.606 14 802.028 14 821.203 14C829.091 14.0023 848.047 14 849.22 14.0023C845.544 14.0023 837.534 14.0023 832.742 14.0023C836.018 14.0023 839.772 14.0023 840.978 14.0023C824.093 14.0047 817.798 14.0094 796.469 14.0117C778.674 14.0117 765.794 14.0117 755.249 14.0117C697.969 14.0117 617.6 14.0117 560.701 14.0117C546.673 14.0117 534.877 14.0117 517.843 14.0117C498.133 14.007 450.677 14.0117 432.114 14.0117C423.659 14.0164 396.332 14.0117 387.605 14.0117C384.29 14.0141 371.049 14.0117 362.871 14.0117C362.839 14.0117 369.824 14.0117 362.871 14.0117C359.627 14.0117 359.607 14.0117 357.93 14.0117C354.944 14.0117 351.042 14.0117 349.681 14.0094C343.567 14.0094 342.612 14.0094 336.498 14.0094C338.156 14.0094 339.342 14.0094 343.083 14.0094C351.939 14.0094 353.183 14.0094 357.93 14.0094C357.718 14.0094 354.777 14.0094 359.569 14.0094C361.787 14.0094 370.153 14.0094 374.409 14.0094C371.346 14.0094 368.908 14.0094 367.811 14.0094C374.267 14.0094 381.975 14.0094 387.605 14.0094C385.851 14.0094 383.413 14.0094 385.961 14.0094C327.843 14.0047 276.871 14.007 219.443 14.0094C216.328 14.0094 210.265 14.0094 204.603 14.0094C188.001 14.0094 176.153 14.0094 171.632 14.0141C191.561 14.0141 207.279 14.0141 239.224 14.0141C245.848 14.0141 250.976 14.0141 252.414 14.0188C226.809 14.0188 199.346 14.0188 174.921 14.0188C171.419 14.0188 169.987 14.0188 166.672 14.0188C146.253 14.0188 136.01 14.0188 122.163 14.0188C95.3324 14.0188 66.5347 14.0188 39.7235 14.0188C33.8156 14.0188 27.9851 14.0188 21.5935 14.0188C36.1504 14.0188 52.2229 14.0188 62.8068 14.0188C77.9184 14.0188 103.93 14.0188 122.163 14.0188C158.3 14.0211 185.383 14.0188 229.318 14.0188C231.549 14.0188 236.844 14.0188 244.165 14.0188C243.642 14.0188 249.131 14.0211 257.348 14.0211C261.934 14.0211 254.484 14.0211 259.005 14.0211C263.727 14.0211 268.17 14.0211 268.899 14.0235C264.514 14.0235 259.483 14.0235 257.348 14.0235C258.864 14.0235 268.944 14.0235 268.899 14.0282C236.096 14.0282 207.157 14.0329 174.921 14.0305C170.645 14.0305 168.497 14.0282 163.376 14.0282C159.919 14.0282 171.819 14.0305 173.264 14.0329C163.615 14.0329 148.697 14.0329 140.293 14.0352C138.352 14.0352 138.868 14.0352 133.695 14.0352C102.808 14.0352 82.0074 14.0352 57.8599 14.0352C48.0435 14.0352 38.4851 14.0352 28.959 14.0352C19.349 14.0352 9.77124 14.0352 0 14.0352C0 14.0962 0 14.1573 0 14.2207" fill="white"/>
</svg>
