<svg width="990" height="47" viewBox="0 0 990 47" fill="none" xmlns="http://www.w3.org/2000/svg">
<path fill-rule="evenodd" clip-rule="evenodd" d="M900.662 9.00452C906.049 9.25132 911.477 9.99185 905.976 10.65C900.164 10.6089 900.278 9.82721 900.662 9.00452Z" fill="white"/>
<path fill-rule="evenodd" clip-rule="evenodd" d="M919.221 8.01718C927.566 7.85264 926.227 8.9221 932.496 9.00437C928.604 9.90934 917.933 8.88101 919.221 8.01718Z" fill="white"/>
<path fill-rule="evenodd" clip-rule="evenodd" d="M956.379 10.3162C957.552 9.09191 971.451 10.4387 980.263 9.66333C979.339 10.7652 964.963 10.1937 956.379 10.3162Z" fill="white"/>
<path fill-rule="evenodd" clip-rule="evenodd" d="M332.876 4.52905C344.106 4.90102 323.524 5.55198 332.876 5.64498C330.966 6.48191 317.773 5.83096 319.631 4.90103C323.492 4.71505 333.311 5.31949 332.876 4.52905Z" fill="white"/>
<path fill-rule="evenodd" clip-rule="evenodd" d="M25.12 0.018794C25.8569 0.995219 24.1443 1.64619 17.1484 1.5067C16.4115 0.530271 18.1241 -0.120695 25.12 0.018794Z" fill="white"/>
<path fill-rule="evenodd" clip-rule="evenodd" d="M415.134 5.64506C420.646 5.41258 423.697 4.85461 428.389 4.52914C440.637 5.73805 466.513 3.13424 476.156 5.27308C438.779 5.41257 410.214 5.50557 375.328 5.64506C378.193 4.90112 388.012 4.71513 397.188 4.80812C401.775 4.90112 406.197 5.04059 409.508 5.08709C412.819 5.22658 415.009 5.41258 415.134 5.64506Z" fill="white"/>
<path fill-rule="evenodd" clip-rule="evenodd" d="M348.819 4.52911C358.316 4.62211 358.523 3.41321 367.377 3.41321C363.859 4.66861 351.87 4.7151 348.819 6.017C341.968 5.924 352.451 5.36605 348.819 4.52911Z" fill="white"/>
<path fill-rule="evenodd" clip-rule="evenodd" d="M681.911 2.75938C686.405 1.64305 688.502 -0.160314 697.833 0.0114293C694.989 1.55712 689.779 2.50177 681.911 2.75938Z" fill="white"/>
<path fill-rule="evenodd" clip-rule="evenodd" d="M573.153 8.3417C586.097 4.82096 619.685 6.62443 636.822 4.22003C619.592 8.08425 593.362 6.28078 573.153 8.3417Z" fill="white"/>
<path fill-rule="evenodd" clip-rule="evenodd" d="M989.422 46.3156C990.124 45.6336 990.168 44.6139 989.656 43.7664C989.671 43.7664 989.685 43.7532 989.7 43.7466C989.715 43.7333 989.722 43.7267 989.736 43.7135C989.758 43.6936 989.78 43.6671 989.802 43.6472C989.831 43.6009 989.868 43.5546 989.904 43.5016C984.769 43.5016 979.26 43.5016 973.547 43.5016C970.04 43.5016 966.402 43.5016 962.742 43.5016C955.429 43.5016 948.029 43.5016 941.388 43.5016C915.402 43.5016 889.576 43.4883 862.955 43.495C859.879 43.495 861.917 43.495 859.222 43.495C839.708 43.495 814.087 43.495 791.995 43.495C776.237 43.495 761.056 43.495 745.305 43.495C727.012 43.495 713.233 43.5016 702.348 43.5082C688.124 43.5082 671.993 43.5214 657.535 43.5082C654.744 43.5082 655.344 43.5082 650.069 43.5082C646.394 43.5082 646.35 43.5082 644.458 43.5082C646.548 43.5082 644.626 43.5082 644.458 43.5082C654.913 43.5082 659.895 43.5082 668.735 43.5082C671.27 43.5082 672.307 43.5082 676.208 43.5082C696.511 43.5082 720.203 43.495 747.168 43.4883C773.139 43.4883 800.141 43.4883 818.135 43.4883C822.408 43.4883 820.626 43.4883 823.745 43.4883C833.447 43.4883 842.039 43.4883 853.618 43.4883C861.764 43.4883 868.638 43.4883 877.895 43.4883C896.663 43.4883 908.469 43.4883 930.188 43.4883C939.123 43.495 960.594 43.4883 961.924 43.495C957.76 43.495 948.686 43.495 943.258 43.495C946.969 43.495 951.221 43.495 952.587 43.495C933.461 43.5016 926.331 43.5148 902.171 43.5214C882.015 43.5214 867.426 43.5214 855.481 43.5214C790.6 43.5214 699.564 43.5214 635.114 43.5214C619.225 43.5214 605.863 43.5214 586.568 43.5214C564.242 43.5082 510.488 43.5214 489.462 43.5214C479.884 43.5347 448.931 43.5214 439.046 43.5214C435.291 43.5281 420.292 43.5214 411.029 43.5214C418.904 43.5214 410.992 43.5214 411.029 43.5214C407.354 43.5214 407.332 43.5214 405.433 43.5214C402.05 43.5214 397.63 43.5214 396.089 43.5148C389.163 43.5148 388.082 43.5148 381.156 43.5148C383.034 43.5148 384.378 43.5148 388.615 43.5148C398.646 43.5148 400.056 43.5148 405.433 43.5148C405.192 43.5148 401.86 43.5148 407.288 43.5148C409.802 43.5148 419.277 43.5148 424.099 43.5148C420.629 43.5148 417.867 43.5148 416.625 43.5148C423.938 43.5148 432.668 43.5148 439.046 43.5148C437.059 43.5148 434.297 43.5148 437.183 43.5148C371.352 43.5016 313.616 43.5082 248.567 43.5148C245.038 43.5148 238.171 43.5148 231.756 43.5148C212.952 43.5148 199.531 43.5148 194.41 43.5281C216.984 43.5281 234.788 43.5281 270.973 43.5281C278.476 43.5281 284.284 43.5281 285.913 43.5413C256.91 43.5413 225.802 43.5413 198.136 43.5413C194.169 43.5413 192.547 43.5413 188.792 43.5413C165.662 43.5413 154.061 43.5413 138.376 43.5413C107.984 43.5413 75.3648 43.5413 44.9953 43.5413C38.3034 43.5413 31.6991 43.5413 24.4592 43.5413C40.948 43.5413 59.1536 43.5413 71.1422 43.5413C88.2592 43.5413 117.723 43.5413 138.376 43.5413C179.309 43.5479 209.986 43.5413 259.751 43.5413C262.279 43.5413 268.277 43.5413 276.569 43.5413C275.977 43.5413 282.194 43.5479 291.502 43.5479C296.696 43.5479 288.258 43.5479 293.379 43.5479C298.727 43.5479 303.76 43.5479 304.586 43.5546C299.618 43.5546 293.92 43.5546 291.502 43.5546C293.218 43.5546 304.637 43.5546 304.586 43.5678C267.43 43.5678 234.649 43.581 198.136 43.5744C193.292 43.5744 190.859 43.5678 185.059 43.5678C181.143 43.5678 194.622 43.5744 196.258 43.581C185.329 43.581 168.431 43.581 158.912 43.5877C156.713 43.5877 157.297 43.5877 151.438 43.5877C116.452 43.5877 92.891 43.5877 65.5387 43.5877C54.4196 43.5877 43.5926 43.5877 32.8022 43.5877C21.9169 43.5877 11.068 43.5877 0 43.5877C0 43.7598 0 43.932 0 44.1107" fill="white"/>
</svg>
