<svg width="1248" height="413" viewBox="0 0 1248 413" fill="none" xmlns="http://www.w3.org/2000/svg">
<path d="M1240.75 304.357C1233.06 305.613 1225.42 305.625 1217.59 304.9C1201.3 303.385 1201.27 303.729 1196.25 318.853C1196.06 319.403 1195.83 319.934 1195.63 320.478C1195.19 321.667 1195.25 322.832 1196.47 323.436C1207.1 328.689 1198.04 331.176 1194.65 333.048C1189.39 335.952 1183.42 337.588 1177.79 339.859C1174.64 341.133 1171.85 340.686 1168.65 339.46C1157.75 335.276 1148.81 329.933 1150.24 316.058C1150.44 314.144 1149.73 312.013 1149.01 310.147C1144.54 298.549 1145.06 286.268 1144.08 274.211C1143.64 268.819 1144.48 263.663 1151.35 262.304C1153.24 261.93 1155.74 260.825 1154.39 258.175C1150.26 250.066 1156.82 251.261 1160.89 250.682C1164.89 250.114 1168.96 250.163 1173 249.897C1175.33 249.746 1178.13 249.686 1178.32 246.661C1179.13 233.716 1182.55 220.94 1180.88 207.826C1180.52 204.989 1179.81 204.192 1176.42 205.091C1159.38 209.632 1153.43 204.397 1155.1 186.918C1155.32 184.611 1155.62 182.317 1155.88 180.017C1156.25 176.726 1155.25 174.124 1151.71 173.55C1137.26 171.202 1123.24 166.486 1108.44 166.009C1103.18 165.84 1101.04 167.984 1100.98 173.025C1100.9 179.099 1100.54 185.161 1100.48 191.235C1100.44 194.507 1099.83 196.91 1095.86 197.031C1086.35 197.327 1077.37 201.873 1067.58 200.4C1063.51 199.79 1060.49 201.994 1061.04 206.365C1062.46 217.475 1060.14 228.173 1058.29 238.957C1057.94 241.01 1056.02 244.155 1059.79 244.415C1067.17 244.922 1074.62 247.989 1081.96 244.91C1087.87 242.428 1091.07 244.922 1093.95 249.782C1096.78 254.558 1095.08 259.34 1094.81 264.152C1093.9 279.753 1087.72 294.618 1088.56 310.503C1085.41 327.898 1095.48 342.183 1100.39 357.597C1103.87 368.501 1110.55 378.349 1114.95 389.011C1117.42 395.001 1121.52 398.237 1127.08 400.405C1129.76 401.449 1132.46 402.476 1135.19 403.405C1152.69 409.377 1170.25 415.137 1189.07 409.763C1194.2 408.296 1200.42 410.065 1204.35 404.987C1214.77 391.541 1231.94 382.636 1232.85 362.747C1232.88 361.92 1233.41 361.117 1233.73 360.308C1240.02 344.381 1243.52 327.693 1247.14 311.029C1248.35 305.432 1246.13 303.469 1240.75 304.351L1240.75 304.357ZM1161.16 220.789C1161.78 219.135 1162.84 217.74 1165.02 217.082C1167.07 217.312 1168.01 218.266 1168.36 219.485C1169.18 218.918 1168.83 217.843 1167.89 214.987C1166.22 215.838 1164.63 216.72 1162.98 217.432C1162.69 217.553 1161.7 216.925 1161.72 216.696C1161.81 215.476 1161.85 214.106 1162.47 213.146C1162.78 212.675 1164.29 212.983 1165.6 212.922C1165.42 209.505 1168.08 208.823 1170.97 208.919C1171.67 208.943 1172.31 210.519 1173.21 211.69C1174.69 210.054 1176.4 208.158 1178.83 205.472C1178.32 210.99 1177.72 215.826 1177.47 220.687C1177.17 226.465 1177.16 232.255 1177.03 238.039C1177.02 238.317 1177.11 238.625 1177.03 238.878C1176.33 241.088 1175.59 243.292 1174.87 245.495C1174.04 243.702 1173.23 241.897 1172.37 240.122C1172.27 239.929 1171.91 239.862 1171.07 239.428C1170.52 241.396 1170.01 243.249 1169.49 245.097C1169.15 245.157 1168.82 245.224 1168.48 245.284C1168.25 243.914 1168.11 242.525 1167.77 241.185C1167.32 239.47 1166.71 237.797 1166.18 236.107L1166.29 236.264V232.333C1168.41 233.257 1169.93 233.921 1171.6 234.652C1171.48 232.575 1171.39 230.788 1171.3 228.995C1171.3 228.765 1171.3 228.536 1171.3 228.3C1172.08 227.075 1172.86 225.855 1173.17 225.36C1171.48 225.185 1169.74 224.998 1167.96 224.81C1167.39 227.376 1166.32 229.761 1163.52 230.516C1160.74 231.265 1159.37 228.451 1159.95 226.036C1160.22 224.925 1160.39 223.718 1160.65 222.552C1159.89 222.087 1159.1 221.61 1158.24 221.097C1159.23 220.995 1160.24 220.699 1161.16 220.783V220.789ZM1148.98 337.377C1149.72 339.822 1150.67 342.219 1151.33 344.689C1151.45 345.117 1150.62 345.8 1150.03 346.645C1143.08 333.869 1141.29 320.109 1138.69 306.343C1139.15 306.941 1139.83 307.466 1140.04 308.137C1143.05 317.869 1145.99 327.632 1148.98 337.371V337.377ZM1151.32 228.487C1150.78 229.767 1150.32 231.271 1148.57 231.367C1146.33 231.488 1145.72 229.737 1145.39 228.083C1144.39 223.12 1145.26 218.585 1149.76 213.272C1151.48 219.232 1153.41 223.639 1151.32 228.487ZM1140.27 197.55C1140.66 193.414 1139.47 186.622 1144.35 186.688C1150.43 186.767 1146.05 193.68 1147.48 196.475C1147.48 198.697 1147.55 200.146 1147.47 201.583C1147.32 204.101 1147.82 207.325 1144.01 207.331C1139.67 207.337 1140.24 203.878 1140.23 201.016C1140.23 199.857 1140.17 198.697 1140.28 197.55H1140.27ZM1140.2 250.163C1142.12 250.163 1144.15 249.818 1145.88 250.374C1146.39 250.537 1146.14 253.049 1146.2 254.6C1146.23 254.624 1146.27 254.643 1146.31 254.667C1146.31 254.667 1146.2 254.763 1146.2 254.757C1146.2 254.709 1146.2 254.655 1146.2 254.6C1144.14 253.387 1142.08 252.173 1140.02 250.96C1140.08 250.694 1140.14 250.428 1140.2 250.163ZM1141.97 272.2C1142.33 272.249 1142.7 272.303 1143.07 272.351C1141.24 281.975 1139.41 291.599 1137.6 301.115C1134.5 299.865 1136.95 281.293 1141.97 272.194V272.2ZM1136.02 318.274C1137.56 318.377 1138.84 319.807 1138.51 321.214C1137.31 326.213 1139.26 330.772 1139.97 335.505C1140.23 336.973 1140.25 338.47 1138.58 339.08C1136.74 339.75 1134.96 338.905 1134 337.546C1129.96 331.816 1132.48 325.61 1133.18 319.584C1133.25 319.01 1135.07 318.207 1136.02 318.268V318.274ZM1128.45 238.256C1128.41 238.28 1128.36 238.311 1128.32 238.335V239.216C1127.8 239.216 1127.29 239.204 1126.78 239.204C1126.11 237.924 1125.44 236.644 1124.56 234.96C1125.05 234.374 1125.93 233.323 1126.81 232.273C1126.93 232.321 1127.03 232.37 1127.15 232.418C1127.27 230.142 1127.39 227.859 1127.52 225.583C1127.78 225.553 1128.06 225.523 1128.32 225.493V236.783C1128.37 237.278 1128.41 237.773 1128.46 238.268L1128.45 238.256ZM1126.96 239.687C1127.64 239.929 1128.64 240.297 1128.78 240.822C1129.71 244.27 1130.45 247.766 1131.26 251.243C1130.46 251.461 1129.68 251.672 1128.89 251.889C1127.95 248.231 1126.97 244.572 1126.12 240.895C1126.04 240.557 1126.83 239.645 1126.96 239.693V239.687ZM1131.48 277.731C1131.85 277.773 1132.21 277.815 1132.57 277.864C1132.13 287.144 1131.69 296.423 1131.25 305.697C1130.85 305.679 1130.45 305.661 1130.05 305.637C1126.74 296.152 1130.92 287.029 1131.48 277.731ZM1127.29 194.809C1130.13 196.119 1133.97 196.512 1132.98 200.334C1131.89 204.542 1132.57 210.127 1128.01 212.361C1124.96 213.852 1124.21 210.332 1124.7 208.092C1125.64 203.763 1122.04 198.383 1127.29 194.809ZM1123.14 269.296C1123.54 280.49 1122 291.817 1125.59 302.781C1126.52 305.601 1126.32 308.239 1122.77 308.668C1119.4 309.072 1116.16 308.354 1116.05 303.977C1115.9 298.205 1116.01 292.42 1116.01 286.642C1116.05 286.642 1116.08 286.642 1116.12 286.642C1116.12 280.864 1115.96 275.08 1116.19 269.308C1116.29 266.434 1116.95 262.8 1120.59 262.993C1124.31 263.192 1123.06 266.947 1123.14 269.29V269.296ZM1122.62 176.05C1122.78 179.087 1124.11 182.039 1119.77 184.394C1117.45 185.65 1116.25 188.94 1114.5 191.277C1113.75 192.285 1112.89 193.215 1112.09 194.175C1111.71 193.867 1111.32 193.553 1110.94 193.245C1114.28 187.256 1117.62 181.266 1120.96 175.277C1121.52 175.537 1122.07 175.79 1122.62 176.05H1122.62ZM1115.26 174.106L1117.07 175.283C1113.5 180.729 1109.92 186.181 1106.36 191.627C1105.94 191.307 1105.53 190.987 1105.11 190.667C1108.49 185.149 1111.88 179.63 1115.26 174.106ZM1091.26 203.672C1091.77 203.914 1092.29 204.149 1092.81 204.391C1090.74 207.814 1088.67 211.238 1086.61 214.661C1086.21 214.444 1085.82 214.226 1085.42 214.015C1087.37 210.567 1089.31 207.126 1091.26 203.678V203.672ZM1070.65 236.306C1070.25 236.288 1069.85 236.27 1069.45 236.246C1066.14 226.761 1070.32 217.638 1070.88 208.34C1071.25 208.382 1071.61 208.424 1071.97 208.472L1070.65 236.306ZM1073.61 242.718C1073.18 242.477 1072.74 242.229 1072.3 241.988C1074.05 238.776 1075.79 235.563 1077.53 232.345C1078 232.605 1078.47 232.871 1078.94 233.13C1077.16 236.324 1075.39 239.518 1073.61 242.712L1073.61 242.718ZM1077 231.724C1073.9 230.474 1076.35 211.902 1081.37 202.803C1081.73 202.851 1082.1 202.906 1082.47 202.954C1080.64 212.578 1078.81 222.202 1077 231.718V231.724ZM1083.65 229.508C1083.26 229.459 1082.87 229.405 1082.47 229.357C1082.72 226.229 1082.96 223.102 1083.21 219.974C1083.81 220.065 1084.41 220.155 1085.01 220.24C1084.56 223.325 1084.11 226.416 1083.65 229.502V229.508ZM1085.15 242.622C1086.46 233.909 1088.46 230.564 1093.08 229.997C1090.33 234.386 1087.94 238.172 1085.15 242.622ZM1088.94 222.063C1092.44 216.074 1095.95 210.054 1099.47 204.047C1099.74 203.576 1100.09 203.147 1100.71 202.272V227.05C1098.22 226.93 1096.36 226.845 1094.96 226.779C1095.85 225.511 1097.61 223.687 1098.52 221.508C1099.36 219.503 1099.3 217.118 1099.65 214.812C1093.3 214.595 1094.32 223.005 1088.94 222.063ZM1095.17 240.436C1093.6 236.874 1094.73 234.519 1098.69 233.251C1099.53 239.663 1100.37 246.075 1101.22 252.487C1100.57 252.638 1099.92 252.789 1099.27 252.94C1098.19 249.963 1097.08 246.993 1096.06 243.998C1095.66 242.845 1095.65 241.541 1095.16 240.442L1095.17 240.436ZM1106.33 318.099C1101.51 317.507 1100.25 312.556 1099.23 308.366C1098.28 304.478 1101.12 304.351 1103.86 304.194C1109.58 303.862 1109.44 307.738 1109.19 312.357C1108.66 314.041 1110.9 318.666 1106.33 318.105V318.099ZM1112.99 251.871C1112.87 255.874 1112.94 258.827 1111.36 261.381C1109.37 264.587 1106.75 268.433 1102.89 267.364C1098.5 266.15 1101.66 262.033 1101.79 259.159C1101.89 256.858 1102.18 254.564 1102.16 252.27C1102.12 248.037 1102.58 242.972 1107.49 243.111C1112.76 243.256 1113.64 248.261 1112.99 251.877V251.871ZM1103.69 195.884C1104.15 196.481 1104.83 197.007 1105.04 197.677C1108.05 207.41 1110.99 217.173 1113.98 226.911C1114.72 229.357 1115.67 231.754 1116.33 234.223C1116.44 234.652 1115.62 235.334 1115.03 236.179C1108.08 223.404 1106.29 209.644 1103.69 195.878V195.884ZM1169.66 403.677C1168.77 406.696 1141.36 400.61 1138.78 399.306C1131.8 395.768 1119.51 385.335 1116.47 376.29C1119.75 375.517 1126.22 384.296 1128.03 386.144C1131.56 389.736 1135.48 392.58 1140.67 393.401C1142.73 393.727 1170.55 400.628 1169.66 403.677ZM1122.65 370.271C1122.91 369.999 1123.16 369.733 1123.42 369.461C1130.18 376.55 1136.94 383.638 1143.63 390.654C1140.8 392.453 1127.13 379.647 1122.65 370.271ZM1189.74 405.7C1187.47 405.416 1184.37 404.866 1184.94 401.926C1185.75 397.736 1189.7 396.311 1193.41 395.744C1196.35 395.297 1197.23 397.712 1197.37 400.634C1196.09 403.888 1193.82 406.207 1189.74 405.694V405.7ZM1226.19 361.492C1227.51 360.689 1228.82 359.886 1231.19 358.443C1227.51 368.423 1224.27 377.244 1220.82 386.578C1219.9 385.564 1219.37 385.202 1219.42 385.008C1220.89 379.882 1222.46 374.781 1223.9 369.649C1224.27 368.357 1224.25 366.962 1224.4 365.615C1223.11 366.304 1221.04 366.702 1220.66 367.735C1218.74 372.788 1217.35 378.035 1215.58 383.149C1215.2 384.278 1214.15 385.25 1213.21 386.059C1213.02 386.228 1211.4 385.407 1211.36 384.966C1211.25 383.771 1211.5 382.479 1211.87 381.319C1212.91 378.095 1214.05 374.907 1215.21 371.732C1218.1 363.798 1225.35 360.079 1230.85 354.681C1231.14 354.953 1231.41 355.231 1231.7 355.502C1229.72 357.35 1227.74 359.191 1225.77 361.039C1225.91 361.196 1226.05 361.353 1226.19 361.51L1226.19 361.492ZM1230.41 331.237C1226.52 345.214 1217.5 356.909 1213.38 370.772C1211.38 377.498 1204.18 372.1 1201.65 375.777C1198.67 375.397 1196.09 375.686 1195.59 373.265C1195.08 370.79 1197.52 370.041 1199.35 369.208C1202.04 367.982 1204.74 366.581 1205.4 363.466C1205.99 360.737 1207.32 357.471 1205.14 355.206C1203.32 353.317 1200.77 355.333 1198.67 355.985C1192.33 357.942 1185.92 359.819 1180.53 363.943C1176.34 367.137 1172.5 368.188 1168.65 363.194C1167.55 361.769 1165.19 361.172 1163.29 360.568C1161.65 360.049 1159.69 359.928 1158.65 361.745C1157.66 363.484 1158.46 365.163 1159.77 366.425C1160.8 367.409 1162.27 367.964 1163.19 369.021C1165.1 371.23 1170.52 371.889 1168.49 375.674C1166.36 379.641 1162.1 376.682 1159.42 375.276C1148.83 369.703 1137.47 365.362 1129.3 355.762C1126.87 352.906 1122.38 351.843 1118.93 349.785C1116.96 348.607 1114.69 347.2 1115.74 344.363C1116.86 341.338 1119.25 341.102 1122.15 341.893C1130.63 344.218 1138.3 349.247 1147.58 348.97C1157.96 348.662 1167.6 353.262 1178.25 353.087C1190.7 352.882 1198.32 347.448 1203.7 337.19C1203.97 336.683 1204.06 336.073 1204.37 335.596C1209.07 328.296 1212.1 318.86 1224.08 321.377C1227.42 322.078 1230.61 314.838 1233.7 319.385C1236.23 323.098 1231.53 327.21 1230.41 331.237H1230.41Z" fill="#2D00F7"/>
<path d="M1146.31 254.667C1146.28 254.642 1146.24 254.624 1146.21 254.6C1146.21 254.654 1146.21 254.709 1146.21 254.757L1146.31 254.667H1146.31Z" fill="#2D00F7"/>
<path d="M1028.75 331.843C1028.28 325.28 1027.25 318.735 1027.11 312.172C1026.91 303.182 1027.57 294.174 1027.4 285.184C1027.22 275.095 1026.18 265.018 1026.14 254.935C1026.1 245.196 1026.78 235.445 1027.32 225.713C1027.49 222.555 1026.47 221.027 1023.38 221.07C1021.44 221.094 1019.51 221.323 1017.57 221.299C1012.52 221.239 1007.47 220.967 1002.41 221.003C997.444 221.04 992.481 221.366 987.518 221.523C985.489 221.589 983.46 221.535 981.329 221.535C981.673 225.423 981.993 228.828 982.265 232.233C982.724 237.981 983.412 243.729 983.533 249.489C983.72 258.244 983.521 267.004 983.466 275.759C983.43 281.495 984.022 287.188 983.877 292.979C983.648 302.283 982.241 311.267 980.254 320.251C979.687 322.823 978.878 325.166 976.209 326.44C975.545 326.754 975.231 327.828 974.778 328.571C973.999 329.845 973.365 331.233 972.448 332.399C964.484 342.445 954.425 349.552 942.446 354.171C937.568 356.054 932.81 357.642 927.551 356.658C924.786 356.139 922.015 355.577 919.31 354.805C913.876 353.253 908.376 351.834 903.105 349.836C897.025 347.523 891.265 344.311 886.827 339.493C879.679 331.723 875.826 322.515 876.273 311.726C876.406 308.568 875.989 305.386 876.038 302.216C876.08 299.119 876.545 296.028 876.551 292.93C876.557 288.952 876.032 284.961 876.195 280.994C876.521 272.976 877.155 264.97 877.662 256.891C877.306 256.463 876.37 255.859 876.285 255.146C876.02 252.876 876.038 250.564 876.008 248.269C875.947 243.953 875.996 239.636 875.869 235.319C875.772 231.974 875.132 228.599 875.41 225.296C875.579 223.316 874.897 222.163 873.484 221.812C871.612 221.353 869.571 221.565 867.603 221.529C860.859 221.396 854.121 221.317 847.377 221.136C844.394 221.058 842.492 222.615 842.504 225.519C842.523 230.313 842.686 235.101 842.704 239.895C842.722 245.812 842.209 251.765 842.716 257.634C843.706 269.13 844.666 280.589 844.599 292.158C844.551 300.351 845.276 308.574 846.139 316.737C846.701 322.056 847.938 327.333 849.212 332.544C850.42 337.489 851.857 342.403 853.559 347.203C855.564 352.842 857.955 358.343 860.213 363.891C860.98 365.769 861.439 367.291 862.453 369.355C863.884 372.26 863.238 373.401 864.639 374.904C866.402 376.782 868.466 378.388 870.115 380.356C875.5 386.768 883.066 390.125 890.051 394.074C893.414 395.976 898.142 395.589 902.272 395.982C903.219 396.072 904.173 396.151 905.121 396.229C902.398 395.155 899.947 393.174 897.375 391.357C892.654 388.018 889.194 383.526 885.179 379.541C884.05 378.424 882.697 377.718 881.224 377.186C881.019 374.675 879.395 373.135 877.493 371.789C875.386 368.981 872.469 367.091 869.632 365.123C870.115 365.805 870.543 366.554 871.196 366.88C873.399 367.973 874.486 369.374 873.502 372.549C869.396 370.014 867.766 365.89 865.043 362.702C865.23 362.485 865.417 362.261 865.611 362.044C865.351 361.808 865.091 361.567 864.844 361.319C863.528 360.83 863.25 359.55 862.773 358.482C862.791 358.463 862.803 358.445 862.821 358.433C862.525 357.751 862.169 357.105 861.704 356.525C861.59 356.586 861.475 356.646 861.354 356.712C861.294 356.453 861.233 356.205 861.167 355.946C861.052 355.837 860.937 355.734 860.811 355.632C860.636 355.107 860.454 354.581 860.279 354.056C860.14 353.482 860.002 352.903 859.863 352.329C858.504 347.04 856.747 341.866 855.673 336.48C854.894 332.592 854.308 328.776 854.918 324.834C856.029 323.33 854.948 321.929 854.725 320.486C855.328 318.754 854.924 317.063 854.483 315.378C856.705 308.272 858.076 300.973 859.458 293.679C861.722 293.015 863.232 295.406 865.894 294.385C862.827 305.676 862.562 308.652 864.705 312.341C861.348 316.278 861.541 320.915 861.97 325.431V321.018C863.347 322.606 864.596 323.837 865.55 325.262C865.84 325.697 865.333 326.669 865.309 326.796C864.023 326.965 863.039 327.037 862.139 327.194C862.151 327.345 862.169 327.496 862.181 327.647C862.211 327.997 862.236 328.372 862.254 328.758C862.616 329.114 862.996 329.458 863.159 329.893C863.703 331.348 864.222 332.821 864.765 334.409C865.043 334.554 865.339 334.687 865.689 334.79C866.039 335.164 866.359 335.55 866.655 335.949C866.571 333.214 864.633 331.131 864.651 328.728C864.904 328.595 865.158 328.468 865.411 328.335C866.16 329.664 867.011 330.938 867.627 332.32C869.396 336.293 871.069 340.308 872.777 344.311C872.904 344.607 873.206 344.933 873.152 345.187C872.379 348.779 875.253 350.633 876.962 352.969C877.807 354.122 878.984 355.288 877.626 356.278C877.529 356.35 877.408 356.38 877.275 356.399C877.837 358.874 879.974 360.534 881.297 362.617C881.574 363.058 881.828 363.68 882.16 364.115C882.589 364.121 883.102 364.217 883.681 364.38C884.804 363.608 883.724 362.309 883.452 361.15C882.77 358.18 879.841 356.882 878.761 354.285C878.392 352.927 878.03 351.574 877.662 350.216C877.39 349.564 877.119 348.918 876.853 348.266C876.261 346.823 875.669 345.374 875.078 343.931C874.933 342.307 874.178 341.008 872.928 339.982C872.391 338.002 871.6 336.039 871.425 334.029C871.34 333.039 870.556 331.451 872.113 330.72C873.442 330.098 874.788 329.966 875.748 331.445C875.416 333.498 877.976 333.697 878.272 335.345C877.976 336.571 879.123 336.879 879.685 337.561C879.811 338.135 879.932 338.708 880.059 339.282C880.228 339.578 880.397 339.873 880.566 340.169C883.211 344.064 883.186 349.34 887.075 352.589C887.684 354.702 887.841 356.942 889.665 358.626C890.8 359.677 891.724 360.269 893.336 359.816C895.159 359.303 895.268 358.023 895.274 356.574C895.274 356.151 895.238 355.734 895.195 355.312C895.057 354.008 895.473 353.162 896.91 352.939C898.22 352.74 898.456 353.543 898.933 354.503C900.69 358.035 901.861 361.947 904.825 364.737C907.76 364.525 910.145 366.795 912.759 366.252C912.246 367.695 911.847 368.824 911.443 369.953C913.665 369.778 915.88 369.609 918.102 369.434C918.145 369.706 918.187 369.983 918.229 370.255C916.333 370.744 914.438 371.233 912.542 371.722C912.862 371.988 913.176 372.26 913.484 372.537C914.311 372.398 915.174 372.248 915.941 372.435C917.293 372.767 918.561 373.461 920.131 374.119C920.089 374.373 919.992 374.995 919.841 375.9C920.795 375.55 921.538 375.272 922.28 375.001C922.401 375.254 922.516 375.502 922.637 375.755C921.278 376.335 919.914 376.915 918.362 377.573C918.785 378.074 919.207 378.569 919.63 379.07C920.288 380.09 920.179 380.652 918.869 381.123C917.275 381.697 915.663 382.131 914.033 382.433C914.733 382.844 915.397 383.242 916.007 383.598C915.941 383.84 915.881 384.075 915.814 384.305C915.385 385.887 915.047 387.143 914.709 388.392C914.715 388.392 914.727 388.404 914.733 388.41L914.703 388.435C914.739 388.398 914.782 388.374 914.818 388.338C914.878 388.29 914.939 388.235 914.999 388.187C916.563 386.992 918.278 387.336 919.739 388.193C919.841 388.253 919.944 388.32 920.046 388.386C921.659 389.431 923.12 388.869 924.539 388.555C926.676 388.072 928.771 387.293 930.8 386.442C932.726 385.639 933.456 386.907 933.969 388.199C934.072 388.465 932.744 389.787 932.037 389.817C925.976 390.083 919.908 390.173 913.84 390.282C913.453 390.288 913.067 390.041 912.107 389.715C913.29 389.129 914.003 388.779 914.697 388.435C914.697 388.423 914.703 388.404 914.709 388.392C913.321 387.469 911.865 386.629 910.567 385.591C909.734 384.927 909.142 383.973 908.297 382.983C908.424 382.801 908.563 382.602 908.702 382.409C908.545 381.22 908.056 380.193 907.222 379.396C905.616 380.604 904.246 380.362 902.906 379.3C902.887 379.366 902.869 379.42 902.857 379.487C901.559 382.644 903.624 384.172 905.858 385.621C906.486 386.122 907.108 386.623 907.736 387.118C909.644 388.549 911.533 389.998 913.465 391.393C914.697 392.281 915.645 393.204 914.601 394.816C914.16 395.269 913.719 395.728 913.284 396.181C912.723 396.404 905.671 396.096 905.139 396.223C907.53 396.38 916.43 397.008 918.827 397.171C920.819 397.304 922.83 397.509 924.816 397.388C929.58 397.099 934.326 396.459 939.089 396.271C946.286 395.988 953.664 397.014 960.246 392.939C961.405 392.22 962.594 391.441 963.482 390.439C964.997 388.73 966.229 386.786 967.672 385.011C971.693 380.06 975.799 375.176 979.783 370.195C980.973 368.709 981.637 366.3 984.04 366.922C986.419 367.544 986.081 369.947 986.232 371.873C986.268 372.314 986.208 372.767 986.25 373.208C986.872 379.783 987.5 386.358 988.146 392.933C988.158 393.078 988.357 393.198 988.828 393.766C990.814 392.57 992.873 391.333 995.234 389.914C995.807 390.3 996.858 391.019 998.035 391.816C998.392 389.316 998.718 387.016 999.044 384.715C999.4 384.727 999.756 384.746 1000.12 384.758C1000.18 386.068 1000.25 387.372 1000.35 389.213C1001.51 391.236 1003.69 391.689 1006.52 391.025C1008.12 390.65 1009.91 390.868 1011.56 391.127C1012.36 391.248 1013.05 392.069 1013.78 392.576C1013.65 392.86 1013.52 393.15 1013.4 393.434H1002.17C1002.32 396.193 1003.75 397.564 1005.94 397.395C1010.85 397.026 1015.72 395.964 1020.63 395.837C1025.75 395.704 1026.35 392.25 1026.88 388.598C1027.31 385.627 1027.55 382.626 1027.7 379.626C1028.02 373.371 1028.31 367.109 1028.43 360.842C1028.56 353.452 1028.47 346.062 1028.52 338.678C1028.54 336.396 1028.94 334.101 1028.78 331.837L1028.75 331.843ZM847.401 233.99C847.431 233.29 847.479 232.251 847.54 230.923C849.623 231.358 851.283 231.708 853.282 232.131C851.162 232.801 849.436 233.35 847.395 233.99H847.401ZM985.453 345.404C985.441 345.162 984.632 344.963 984.354 344.83C985.845 344.202 987.536 343.49 989.287 342.747C990.054 344.8 989.54 346.436 987.741 347.976C983.231 351.84 978.866 355.873 974.428 359.816C972.792 361.265 968.94 361.615 967.768 360.619C968.427 359.218 969.073 357.854 969.785 356.338C970.008 356.483 970.709 356.936 972.025 357.781C971.56 356.743 971.325 356.229 971.071 355.65C973.734 354.805 976.348 353.971 979.023 353.126C978.703 352.323 978.437 351.653 978.171 350.983C978.28 350.892 978.395 350.808 978.503 350.717C978.902 351.049 979.3 351.381 979.874 351.852C981.528 349.497 985.67 349.383 985.459 345.392L985.453 345.404ZM968.288 348.791C971.663 346.575 975.008 344.311 978.642 341.884C978.709 341.938 979.21 342.331 980.061 343.001C976.692 345.12 973.619 347.125 970.467 349.002C968.825 349.981 966.736 350.476 967.358 353.47C965.565 350.759 965.661 350.512 968.282 348.791H968.288ZM957.957 358.88C959.533 358.005 962.818 355.022 964.321 353.41C964.858 354.515 965.378 355.583 965.794 356.447C962.413 358.687 959.509 360.891 956.339 362.599C954.473 363.608 952.191 363.873 950.066 364.356C949.788 364.417 949.354 363.765 948.641 363.137C952.723 361.259 954.353 360.885 957.957 358.886V358.88ZM965.716 372.755C967.63 369.44 969.694 366.638 974.174 366.771C971.711 369.573 969.586 372.248 965.716 372.755ZM973.384 364.459C973.625 364.223 973.86 363.994 974.084 363.783C974.525 363.354 974.929 362.962 975.322 362.581C975.515 362.394 975.708 362.207 975.901 362.02C976.028 362.159 976.155 362.291 976.282 362.43C976.668 362.847 977.079 363.288 977.568 363.813C978.189 363.402 979.053 362.823 980.218 362.044C979.198 365.026 977.224 365.751 973.384 364.459ZM988.568 357.298C986.902 358.095 985.435 359.321 983.762 360.106C982.627 360.637 981.293 360.722 980.043 361.005C979.946 360.74 979.85 360.474 979.759 360.208C981.094 359.218 982.422 358.222 983.865 357.147C983.309 356.483 982.76 355.831 982.09 355.034C983.062 355.131 983.901 355.215 984.855 355.306C985.091 354.853 985.223 354.273 985.592 353.965C986.485 353.205 987.457 352.522 988.49 351.967C988.58 351.919 989.546 353.005 989.685 353.651C989.975 354.992 990.392 356.423 988.568 357.298ZM1001.28 383.629C1000.46 382.596 998.887 381.54 998.917 380.525C999.092 374.415 999.635 368.311 1000.05 362.189C1002.48 362.744 998.826 365.854 1001.61 366.149C1001.1 371.614 1000.76 377.271 1001.29 383.623L1001.28 383.629ZM1000.84 351.399C1001.21 353.283 1001.59 355.167 1002.04 357.503C998.585 355.674 1001.02 353.283 1000.84 351.399ZM1000.95 331.644C1001.45 333.558 1001.87 335.176 1002.36 337.042C999.497 336.209 999.279 335.236 1000.95 331.644ZM1005.99 385.724C1005.54 385.017 1004.87 384.365 1004.69 383.592C1004.38 382.246 1004.27 380.827 1004.29 379.444C1004.3 378.955 1004.91 378.478 1005.25 377.995C1005.46 378.466 1005.81 378.925 1005.86 379.414C1006.07 381.377 1006.17 383.351 1006.32 385.319C1006.21 385.452 1006.1 385.585 1005.99 385.718L1005.99 385.724ZM1012.76 379.952C1012.38 380.851 1012.54 382.892 1010.45 381.847C1010.9 380.441 1011.26 379.275 1011.63 378.11C1011.81 378.032 1011.98 377.953 1012.15 377.875C1012.38 378.581 1012.97 379.438 1012.76 379.958V379.952ZM1023.23 389.582C1020.26 391.538 1016.17 388.592 1015.84 383.858C1015.5 379.052 1015.33 374.228 1015.06 368.945C1015.25 368.927 1016.12 368.848 1017.81 368.691C1014.78 350.125 1011.73 331.517 1008.61 312.36C1010.83 314.243 1012.85 315.952 1014.87 317.667C1015.34 317.371 1015.8 317.075 1016.27 316.779C1016.85 323.493 1017.51 330.207 1017.99 336.927C1018.62 345.772 1019.08 354.636 1019.72 363.481C1019.92 366.325 1018.13 369.869 1022.19 371.65C1022.24 371.674 1021.49 373.443 1021.17 374.421C1020.57 376.323 1020.01 378.237 1019.24 380.755C1021.35 380.417 1022.44 380.241 1023.53 380.066C1023.69 380.272 1023.85 380.477 1024.02 380.682C1022.14 381.703 1020.27 382.729 1017.72 384.118C1020.17 386.545 1021.72 388.084 1023.23 389.582Z" fill="#2D00F7"/>
<path d="M906.643 378.931C906.564 378.877 906.486 378.81 906.401 378.762C906.142 378.599 905.876 378.418 905.604 378.255C905.629 378.502 905.659 378.762 905.713 379.022C905.955 378.998 906.251 378.973 906.643 378.937V378.931Z" fill="#2D00F7"/>
<path d="M866.655 335.955C866.354 335.557 866.034 335.17 865.689 334.796C865.345 334.693 865.043 334.56 864.766 334.416C865.2 335.689 865.659 337.042 866.166 338.521C866.553 337.591 866.674 336.746 866.649 335.955H866.655Z" fill="#2D00F7"/>
<path d="M948.309 386.72C948.225 386.774 948.14 386.822 948.056 386.865C948.146 386.822 948.231 386.774 948.309 386.72Z" fill="#2D00F7"/>
<path d="M914.824 388.344C914.885 388.296 914.945 388.241 915.005 388.193C914.945 388.241 914.885 388.289 914.824 388.344Z" fill="#2D00F7"/>
<path d="M914.709 388.441L914.739 388.417C914.739 388.417 914.721 388.435 914.703 388.447L914.709 388.441Z" fill="#2D00F7"/>
<path d="M914.739 388.416C914.739 388.416 914.721 388.404 914.715 388.398C914.715 388.411 914.709 388.423 914.703 388.435C914.715 388.435 914.727 388.423 914.739 388.416Z" fill="#2D00F7"/>
<path d="M914.697 388.434C914.697 388.434 914.697 388.434 914.703 388.434C914.703 388.422 914.709 388.41 914.715 388.398C914.715 388.41 914.709 388.428 914.703 388.44L914.697 388.434Z" fill="#2D00F7"/>
<path d="M914.709 388.447C914.709 388.447 914.709 388.447 914.703 388.447C914.703 388.447 914.703 388.435 914.703 388.429C914.703 388.429 914.703 388.429 914.697 388.429C914.697 388.435 914.697 388.441 914.697 388.447C914.697 388.447 914.703 388.447 914.709 388.435V388.447Z" fill="#2D00F7"/>
<path d="M914.703 388.446C914.703 388.446 914.703 388.446 914.709 388.446C914.721 388.434 914.745 388.417 914.745 388.417C914.733 388.417 914.721 388.428 914.709 388.434C914.709 388.434 914.709 388.446 914.709 388.452L914.703 388.446Z" fill="#2D00F7"/>
<path d="M949.843 385.096C949.843 385.096 949.825 385.114 949.812 385.126C949.825 385.126 949.831 385.126 949.843 385.126C949.843 385.126 949.843 385.126 949.849 385.12L949.837 385.096H949.843Z" fill="#2D00F7"/>
<path d="M949.854 385.12V385.132C949.854 385.132 949.867 385.132 949.873 385.132C949.873 385.132 949.861 385.132 949.854 385.126V385.12Z" fill="#2D00F7"/>
<path d="M949.849 385.102C949.849 385.102 949.849 385.102 949.849 385.114C949.849 385.114 949.861 385.114 949.867 385.12C949.867 385.12 949.873 385.12 949.879 385.12C949.867 385.12 949.855 385.108 949.843 385.108L949.849 385.102Z" fill="#2D00F7"/>
<path d="M366.236 339.076C366.146 335.556 364.636 332.175 365.421 328.601C366.158 325.244 365.959 321.869 365.53 318.476C364.497 310.367 363.127 302.343 361.509 294.307C358.719 280.456 354.855 267.216 346.36 255.756C341.85 249.67 336 244.804 330.258 239.925C328.537 238.464 327.637 235.947 324.92 235.651C321.491 235.276 318.502 233.713 315.544 232.028C305.872 226.522 295.257 223.744 284.311 223.334C271.137 222.845 258.494 226.286 246.316 231.201C239.469 233.966 232.695 236.985 226.741 241.441C217.22 248.565 210.983 258.377 205.217 268.502C203.122 272.179 201.86 276.188 202.687 280.517C203.279 283.626 203.412 286.693 203.001 289.845C202.53 293.48 204.293 295.062 207.517 293.45C211.913 291.252 216.652 291.886 221.102 290.853C229.084 289.006 237.941 290.666 244.426 282.6C249.926 275.759 258.228 271.641 266.403 268.007C268.365 267.131 270.322 266.787 272.435 266.63C279.807 266.081 286.877 268.58 294.207 268.671C297.165 268.707 300.407 270.168 301.82 272.903C303.287 275.747 305.195 276.526 308.021 276.387C311.945 276.194 314.711 277.703 316.214 281.573C317.434 284.713 317.301 288.112 315.912 290.594C314.524 293.081 311.191 292.254 308.365 291.711C303.088 290.696 297.745 291.294 292.407 291.747C280.356 292.779 268.293 293.715 256.23 294.53C247.559 295.116 238.787 293.806 230.189 296.07C226.283 297.096 222.328 298.171 218.331 298.563C213.7 299.016 210.784 301.172 207.862 304.782C199.143 315.548 193.25 327.23 193.136 342.367C191.819 351.659 198.781 358.796 202.941 367.001C204.571 370.219 208.17 369.458 210.723 370.847C215.795 373.606 220.837 376.993 226.868 377.386C235.967 377.983 245.096 378.738 254.195 378.593C259.333 378.509 264.876 380.573 269.736 377.035C269.911 376.909 270.563 377.132 270.744 377.374C271.97 379.022 273.763 378.672 275.417 378.78C281.926 379.191 288.435 379.656 294.949 379.946C299.133 380.133 303.692 380.35 306.548 376.758C308.582 374.204 310.768 372.483 313.666 371.1C315.731 370.116 317.403 369.362 319.378 370.817C321.28 372.217 321.612 374.083 321.256 376.371C320.634 380.392 321.274 380.767 325.391 380.513C331.447 380.139 337.098 376.727 343.384 378.158C343.613 378.213 343.903 378.092 344.144 378.007C348.757 376.389 353.43 377.651 358.037 377.929C361.817 378.152 362.771 377.736 362.928 374.041C363.296 365.177 363.725 356.326 365.741 347.632C366.387 344.848 366.321 341.981 366.248 339.089L366.236 339.076ZM217.468 285.244C217.395 285.353 217.317 285.462 217.232 285.57C216.091 287.092 214.889 289.012 213.766 288.366C212.704 287.762 213.543 286.138 214.515 284.508C214.714 284.17 214.914 283.874 215.107 283.608C216.212 282.111 218.518 283.705 217.468 285.244ZM211.69 283.397C209.987 285.933 208.121 289.06 207.004 288.408C205.948 287.792 207.324 285.196 208.858 282.545C210.82 279.152 220.704 273.893 221.742 274.31C222.316 275.125 213.416 280.825 211.69 283.397ZM247.771 262.374C248.085 264.028 249.286 264.644 250.814 264.97C251.955 265.217 253.905 264.716 253.712 266.678C253.573 268.121 251.864 267.777 250.771 267.983C244.993 269.063 239.958 271.496 235.52 275.445C233.214 277.492 230.334 278.899 227.677 280.541C226.705 281.139 225.757 281.296 225.111 279.949C223.898 277.413 225.317 273.121 227.804 271.46C229.507 270.325 245.911 263.913 243.973 261.263C242.415 259.137 226.403 264.964 224.194 266.89C221.935 268.858 219.617 270.76 217.274 272.632C216.333 273.38 215.536 274.974 214.008 273.912C212.758 273.042 212.227 271.581 212.505 270.09C212.915 267.886 213.845 265.888 215.445 264.239C222.147 257.362 230.455 252.725 238.43 247.593C243.176 244.538 248.773 242.6 252.245 237.667C253.289 236.182 255.221 235.639 257.027 235.186C263.137 233.658 269.362 233.139 277.235 233.012C287.855 233.344 299.097 237.172 309.814 242.685C311.438 243.518 315.544 242.98 313.853 246.839C312.102 250.835 310.219 246.718 308.649 246.325C300.311 244.254 292.087 241.7 283.822 239.31C281.515 238.645 279.614 238.996 277.754 240.765C274.85 243.536 270.823 243.506 267.176 244.309C260.54 245.77 254.243 248.203 247.946 250.654C247.203 250.944 234.904 258.884 235.037 259.765C235.206 260.931 248.658 253.341 248.658 253.341C249.564 253.275 250.548 253.226 251.333 252.834C258.168 249.447 265.896 250.292 273.02 248.197C274.88 247.648 278.225 246.621 278.823 249.338C279.481 252.345 275.858 251.307 274.198 252.11C268.359 254.923 261.827 255.14 255.662 256.752C253.603 257.29 251.732 258.087 249.884 259.041C248.519 259.747 247.451 260.653 247.783 262.386L247.771 262.374ZM294.001 261.655C292.727 262.5 291.466 263.219 289.612 263.34C289.099 263.37 288.012 263.201 287.233 263.008C286.164 262.651 286.05 262.549 284.981 262.192C284.981 262.192 283.592 262.126 282.294 261.957C281.316 261.83 271.426 260.484 266.011 262.549C264.713 263.044 262.907 262.186 262.442 264.348C262.153 264.505 261.869 264.668 261.579 264.825C261.084 265.103 260.486 264.716 260.516 264.149C260.553 263.442 260.492 262.7 260.873 262.023C262.654 258.878 266.21 257.755 271.33 257.936C274.439 258.045 277.609 257.96 280.815 257.193C285.029 256.191 289.358 257.157 293.241 259.276C293.899 259.639 294.762 261.148 294.007 261.649L294.001 261.655ZM315.689 263.569C309.585 259.602 303.632 255.044 296.622 254.742C294.339 253.559 291.695 253.546 289.745 251.771C288.507 250.648 285.917 249.592 286.358 248.137C286.738 246.875 288.525 246.458 290.445 246.977C294.291 248.016 298.198 249.199 302.05 250.666C305.002 251.796 307.936 253.027 310.871 253.758C314.632 254.694 316.498 256.408 316.299 259.053C316.184 260.586 317.096 262.561 315.689 263.563V263.569ZM299.598 316.248C301.663 317.184 301.096 318.53 300.48 319.478C299.858 320.444 298.506 319.883 297.316 319.381C289.986 316.29 262.038 320.009 254.847 321.627C253.44 320.07 275.659 315.584 276.776 315.083C277.935 314.557 279.227 314.195 280.459 313.766C282.989 313.308 287.716 314.932 291.447 315.209C293.953 317.027 296.109 316.302 299.598 316.254V316.248ZM292.788 334.283C294.291 336.088 291.918 338.364 288.06 338.219C281.684 336.625 274.306 338.328 267.128 336.752C263.964 336.058 262.189 334.168 260.885 331.445C259.961 329.513 260.293 328.148 261.959 326.669C265.165 323.819 268.921 322.763 273.032 322.352C278.611 321.797 284.22 322.672 289.817 321.694C292.601 321.205 293.066 323.264 292.329 325.54C291.363 328.517 290.246 331.227 292.788 334.283ZM284.166 300.677L261.863 298.805C269.331 298.672 276.818 296.644 284.166 300.677ZM216.544 307.306C222.521 304.45 228.372 300.942 234.687 299.312C239.789 297.996 245.501 299.022 250.947 299.047C251.297 299.047 251.846 299.27 251.955 299.536C254.732 306.105 260.504 303.122 265.129 303.629C267.84 303.925 270.593 303.84 273.328 303.931C274.795 303.979 276.257 303.943 276.317 306.08C276.371 308.194 275.055 308.719 273.371 308.966C272.338 309.117 271.312 309.28 270.605 309.389C259.719 307.626 249.769 312.172 239.312 312.269C232.2 312.329 224.985 311.798 217.848 313.048C216.55 313.277 203.122 321.766 202.579 320.003C201.914 317.83 214.986 308.049 216.544 307.306ZM246.37 323.59C242.548 324.996 238.352 323.759 234.88 325.244C233.292 325.051 231.427 325.492 231.391 323.801C231.354 322.038 233.28 322.201 234.446 322.418C238.497 323.173 241.588 320.438 245.205 319.695C246.43 319.442 247.958 318.657 248.525 320.396C249.069 322.062 247.759 323.077 246.364 323.59H246.37ZM248 330.249C248 331.559 247.131 332.018 245.984 332.169C242.379 332.652 238.763 333.594 235.17 333.528C228.933 333.413 222.745 333.437 216.61 334.669C215.62 334.868 214.739 334.717 214.352 333.685C213.948 332.598 214.678 331.97 215.517 331.517C218.566 329.869 221.851 329.235 226.047 329.386C230.986 328.927 236.667 328.372 242.355 327.883C243.514 327.78 244.698 327.871 245.863 327.961C247.233 328.07 247.994 328.855 248 330.255V330.249ZM206.823 322.6C209.993 321.308 213.078 319.822 216.049 318.132C217.401 319.055 218.192 317.19 219.4 317.051C220.559 316.918 221.76 316.495 223.288 316.121C222.014 317.739 220.064 318.041 218.627 318.935C213.911 321.869 208.767 324.018 203.557 325.981C202.609 326.337 202.011 326.983 201.202 327.43C200.103 328.034 199.047 328.45 198.66 327.297C201.383 325.739 203.828 323.825 206.817 322.606L206.823 322.6ZM198.763 345.621C197.652 341.878 200.333 338.195 200.284 334.319C200.278 333.757 201.172 333.455 201.878 333.498C202.621 333.546 203.062 333.987 203.231 334.669C203.321 335.037 203.376 335.46 203.303 335.828C201.83 343.098 204.547 356.706 207.342 363.372C204.01 360.196 200.061 349.974 198.769 345.627L198.763 345.621ZM207.354 337.827C206.292 337.223 207.131 335.599 208.103 333.969C209.347 331.88 210.482 331.209 211.496 331.668C212.148 332.338 211.979 333.479 210.82 335.025C209.679 336.547 208.477 338.467 207.354 337.821V337.827ZM209.371 342.373C209.413 341.31 209.908 340.803 210.935 340.99C212.034 341.196 218.24 344.287 218.506 345.356C218.307 346.66 211.883 343.961 211.092 343.991C209.981 344.027 209.323 343.629 209.371 342.373ZM250.222 373.383C250.174 373.558 249.975 373.817 249.775 373.835C248.055 373.968 246.304 374.004 244.758 374.56C244.625 374.608 244.215 374.403 243.997 374.264C240.761 372.217 236.655 371.601 232.876 370.46C232.369 370.309 231.499 370.291 231.391 370.509C229.809 369.645 228.607 369.869 227.055 368.957C226.397 368.371 221.513 366.572 218.778 365.334C218.355 365.377 217.993 365.672 217.582 365.558C215.904 365.105 214.038 364.815 212.806 363.958C212.963 363.402 213.428 362.901 212.456 362.303C211.925 361.977 211.744 361.35 212.559 360.993C213.235 361.857 214.231 362.322 215.548 362.786C219.231 364.085 222.702 365.691 226.512 366.832C227.774 367.212 228.957 367.713 230.328 367.84C230.974 367.9 231.753 367.943 231.644 368.643C235.061 369.609 238.461 370.605 241.999 371.306C244.559 371.807 246.877 373.032 249.624 373.026C249.878 373.026 250.295 373.093 250.216 373.377L250.222 373.383ZM256.133 363.33C245.549 359.562 233.926 359.11 224 353.241C223.191 352.764 222.056 351.901 221.277 353.223C220.577 354.418 221.736 355.04 222.425 355.795C223.276 356.731 225.733 356.996 224.514 358.838C223.391 360.534 221.664 359.266 220.348 358.512C218.102 357.226 215.644 356.205 213.984 354.074C213.44 353.38 212.529 352.722 213.139 351.707C213.766 350.663 214.757 351.007 215.542 351.502C217.474 352.722 218.874 352.842 219.532 350.162C219.78 349.141 220.704 349.437 221.489 349.654C228.215 351.52 234.627 354.267 241.172 356.64C245.404 358.174 249.938 358.862 254.316 360.009C255.928 360.432 264.386 359.466 265.34 360.993C264.845 362.309 256.93 363.614 256.145 363.33H256.133ZM288.241 349.449C282.916 351.073 277.802 349.999 272.67 348.459C269.12 347.396 265.461 348.936 261.808 348.145C260.184 347.795 260.148 349.334 260.939 350.928C260.873 352.921 260.064 354.273 257.419 353.947C248.067 352.782 239.161 350.059 230.509 346.376C228.734 345.621 226.832 345.072 224.93 344.698C222.992 344.311 222.008 343.152 221.446 341.425C221.12 340.423 220.71 339.306 221.815 338.599C222.823 337.953 223.481 338.907 224.121 339.517C224.689 340.061 225.25 340.852 226.053 340.67C231.783 339.402 236.305 343.007 241.383 344.347C242.596 344.667 243.937 345.639 245.012 344.384C245.923 343.315 244.643 342.542 244.172 341.685C243.623 340.689 243.52 339.614 244.329 338.781C245.368 337.706 246.811 337.978 248.03 338.286C252.058 339.3 256.109 340.29 260.039 341.606C264.145 342.983 268.746 342.916 272.483 344.595C277.748 346.956 282.789 347.879 288.368 347.076C289.123 346.968 301.627 340.948 301.392 342.47C301.216 343.599 289.057 349.196 288.235 349.443L288.241 349.449ZM351.1 291.053C352.277 304.372 354.674 317.588 354.596 331.01C354.59 332.399 355.471 334.596 353.213 334.874C351.172 335.122 349.476 333.866 348.685 331.825C347.097 327.732 346.982 323.451 347.121 320.504C347.073 315.88 347.972 312.565 347.785 309.474C347.272 300.882 347.978 292.073 344.742 283.789C344.368 282.835 343.782 281.948 343.209 281.084C342.683 280.293 341.174 279.726 342.243 278.579C343.197 277.552 344.144 278.82 345.02 279.183C350.357 281.392 350.713 286.712 351.094 291.053H351.1ZM319.909 241.731C319.106 241.242 317.983 241.266 318.575 239.877C319.601 240.584 321.044 239.334 321.956 240.584C326.303 241.387 328.929 245.347 333.035 246.591C334.877 248.167 335.498 250.817 337.805 251.983C339.526 254.724 342.158 256.662 344.163 259.192C345.865 261.341 343.897 262.307 343.523 263.702C343.335 264.402 342.623 263.478 342.194 263.092C339.864 260.985 339.187 257.833 337.757 255.249C333.705 247.913 326.291 245.625 319.915 241.737L319.909 241.731ZM334.436 263.255C334.285 262.724 334.695 262.259 335.293 262.192C335.909 262.126 336.344 262.506 336.362 263.074C336.543 268.574 338.704 273.664 339.592 279.013C339.773 280.124 340.467 281.918 338.608 282.286C336.893 282.624 336.145 281.181 335.698 279.726C334.889 277.124 333.868 274.564 333.971 271.762C334.049 268.924 335.257 266.153 334.436 263.255ZM355.338 369.537C353.183 364.646 349.373 367.055 345.926 367.665C347.526 367.49 348.751 369.651 350.635 368.287C350.949 368.057 352.175 368.667 352.09 369.561C351.957 370.992 350.243 372.241 349.663 371.988C346.988 370.817 343.583 372.815 341.289 369.76C340.588 368.824 338.535 368.583 337.189 369.048C333.494 370.328 329.738 368.051 325.826 370.515C326.369 368.19 327.396 368.619 328.12 368.601C334.025 368.45 339.791 367.623 345.449 365.799C347.562 365.117 349.898 365.093 351.975 364.097C352.525 363.831 352.881 363.505 352.609 362.913C352.41 362.472 351.963 362.485 351.535 362.636C348.298 363.789 345.068 361.591 341.717 362.732C340.075 363.288 339.912 361.585 340.612 360.48C341.56 358.983 342.689 357.564 343.945 356.314C345.726 354.533 346.801 355.022 347.912 357.286C348.443 358.361 348.685 359.846 350.677 360.136C353.714 360.577 353.183 358.959 353.515 357.014C354.288 352.432 355.399 347.891 357.288 343.562C358.665 352.371 357.608 360.969 355.332 369.543L355.338 369.537Z" fill="#2D00F7"/>
<path d="M573.709 180.282C571.161 179.832 568.284 178.033 565.226 177.859C560.945 177.622 555.7 179.027 551.523 179.019C548.896 179.019 547.072 177.236 544.255 179.114L516.074 257.855C514.116 255.456 513.911 251.779 512.812 248.764C509.465 239.595 502.546 224.088 495.482 220.331C494.078 219.582 489.287 217.64 488.033 217.759C486.859 217.869 479.725 221.199 478.397 222.146C473.701 225.5 466.976 237.898 464.529 244.479C463.15 248.188 457.984 268.099 455.022 268.083L446.739 233.936C443.552 223.662 440.814 213.403 438.791 202.741C437.887 197.975 434.934 195.536 437.052 189.16C432.601 190.154 432.466 181.205 429.669 177.93C425.452 177.496 420.981 176.66 416.775 177.149C411.17 177.796 405.51 179.864 399.875 180.179C397.622 180.306 394.579 179.011 392.016 179.666C391.122 179.895 386.516 183.139 386.491 184.804C386.816 191.235 386.856 196.586 387.95 202.907C389.514 211.911 392.281 221.436 393.97 230.646C396.543 244.677 398.346 259.055 401.233 272.991C406.254 297.226 413.498 321.059 418.194 345.483C420.202 355.931 419.772 367.035 422.675 376.702C424.099 381.445 426.377 385.824 427.97 390.473C429.219 392.658 431.277 391.459 432.816 391.94C434.375 392.422 436.813 394.032 438.246 393.897C439.505 393.779 440.434 392.035 441.693 391.98C443.747 391.885 448.597 394 450.091 394C451.13 394 451.72 392.793 452.579 392.595C455.851 391.838 459.768 393.511 463.105 391.151C463.719 389.147 462.146 387.805 461.916 386.527C461.201 382.526 467.186 369.631 467.846 364.707C469.06 355.639 470.094 349.239 473.111 340.693C473.561 339.414 474.615 338.751 474.86 337.662C476.468 330.521 477.787 322.211 480.435 315.432C480.814 314.461 481.399 312.796 482.063 312.244C484.636 310.097 490.866 314.327 492.295 317.926C499.583 338.452 505.593 360.059 511.853 380.829C512.072 381.555 511.718 382.944 512.097 383.765C512.527 384.704 514.29 384.088 515.14 385.004C516.109 386.045 515.509 388.216 516.314 389.51C518.397 392.864 528.119 391.743 531.356 391.846C537.286 392.035 541.467 392.011 547.592 391.214C548.876 391.049 548.985 392.382 550.749 390.828C553.671 388.255 550.854 387.174 551.009 384.041C551.243 379.267 553.382 370.909 554.081 365.472C557.353 339.943 561.595 315.977 566.201 291.063C572.345 257.84 578.815 225.958 587.982 193.95L588.491 185.064C584.005 179.232 578.909 181.197 573.714 180.274L573.709 180.282ZM391.507 188.481C390.048 183.257 396.932 186.982 395.688 188.481H391.507ZM397.402 212.219L395.658 207.942L397.652 206.845L398.641 211.603L397.397 212.211L397.402 212.219ZM472.022 294.993C472.452 294.228 472.677 292.073 473.241 291.884C475.079 291.26 473.626 296.382 473.97 297.329L472.292 297.25L471.762 299.365L470.508 296.974C470.354 295.545 471.523 295.893 472.027 294.993H472.022ZM461.177 317.728C460.657 316.261 461.691 314.367 462.65 313.656C462.63 314.746 462.82 315.827 462.515 316.884C462.475 317.026 461.191 317.815 460.937 319.125C460.717 320.246 461.276 321.232 461.102 321.674C460.637 322.85 455.676 327.048 454.782 324.2L456.186 323.789C456.106 319.449 458.309 317.957 459.953 315.022C460.647 315.992 459.428 318.289 461.182 317.736L461.177 317.728ZM459.693 273.52C459.983 275.635 458.229 276.708 457.305 278.042C456.461 279.257 456.211 282.114 453.783 281.672C454.857 278.208 456.351 273.339 459.688 273.52H459.693ZM443.951 302.774H444.426C444.386 303.169 444.436 303.532 444.631 303.831C444.996 304.392 445.855 303.887 445.42 305.481L443.996 305.52L443.457 310.239L442.433 304.486C442.533 303.831 444.311 304.573 443.951 302.766V302.774ZM442.463 301.401C442.118 302.04 440.16 299.175 440.06 298.962C439.315 297.345 440.1 295.38 438.032 295.956C439.086 294.662 437.102 292.854 438.032 292.215C438.446 291.931 439.545 293.075 439.825 293.486C440.889 295.056 440.814 295.972 440.499 298L442.238 297.968L442.463 301.393V301.401ZM437.042 307.201C437.607 305.149 440.265 302.679 440.759 305.828C440.934 306.933 440.25 307.604 441.174 309.363C441.354 309.711 442.872 309.442 441.494 311.265C439.39 312.054 439.3 309.45 437.057 310.247L438.037 307.864L437.047 307.201H437.042ZM440.984 281.68C441.568 283.574 439.136 282.722 440.025 284.379C440.14 284.592 441.469 283.882 440.979 285.76C439.45 284.442 438.601 286.983 437.027 286.833C434.779 282.398 438.596 282.39 440.984 281.688V281.68ZM438.411 315.898C438.656 316.276 438.321 318.462 440.265 318.297C441.439 318.194 440.165 313.735 442.463 315.014L442.962 319.094C443.087 319.283 445.945 316.521 446.394 318.754C446.899 321.256 444.851 320.625 444.416 321.611C443.896 322.787 443.966 325.786 443.936 327.254L441.469 324.2L442.957 322.487C442.333 321.059 441.079 321.303 441.474 319.086L440 319.788L440.484 322.487L436.778 319.796L436.058 315.014C436.233 314.832 438.196 315.574 438.406 315.898H438.411ZM434.565 291.9L434.58 293.233C433.231 292.957 433.955 294.583 433.6 295.964H432.137C431.932 293.288 431.632 290.4 429.679 289.169C429.999 291 428.25 290.242 428.175 290.874C428.775 293.943 429.244 294.993 428.19 298.008H429.669V300.044L425.772 300.675L424.748 295.979L427.696 296.658C428.27 294.922 426.771 295.538 426.721 294.89C426.392 290.384 427.466 291.442 428.86 289.895C429.294 289.414 429.209 287.228 430.643 286.794C427.9 283.921 427.176 282.564 429.904 278.965C430.123 279.533 430.868 279.478 431.028 279.818C431.128 280.031 432.057 284.458 432.067 284.718C432.117 286.604 430.393 289.098 432.122 289.856L432.132 287.141L432.911 288.569L435.074 287.827C435.709 290.432 431.717 291.229 434.56 291.931L434.565 291.9ZM429.664 310.934L429.599 308.298L427.915 307.58L427.755 304.179L429.059 304.013L429.909 300.73C431.667 303.689 429.409 307.856 433.106 308.219C433.451 308.843 430.563 311.628 429.664 310.934ZM423.514 334.735C421.891 333.322 422.555 332.162 422.765 329.984L421.296 330.663V328.619L422.2 329.203L423.01 327.269L424.249 327.94C423.239 328.611 425.228 335.69 423.514 334.735ZM423.274 293.233L422.275 291.537C421.916 290.045 423.724 290.329 423.749 289.508C423.754 289.311 423.01 288.427 422.985 287.504C422.955 286.265 423.434 285.215 423.174 283.535C422.905 281.751 421.291 280.567 421.276 279.305C421.251 277.379 422.955 277.616 423.634 278.452C424.124 279.06 424.179 280.765 424.259 281.688L426.222 281.009L425.887 283.061L424.593 283.037C423.194 285.152 425.647 285.784 425.248 287.804L426.222 286.454L426.686 288.775C424.808 289.627 424.623 291.544 423.284 293.249L423.274 293.233ZM420.322 235.073C420.881 233.621 422.48 233.984 423.139 234.907C423.844 235.886 424.139 238.648 423.015 239.484L420.317 235.073H420.322ZM435.074 285.76C433.935 286.052 433.965 285.042 433.62 284.04C433.101 282.532 432.686 280.52 432.127 278.965L434.804 280.299L435.074 285.76ZM434.09 263.309H429.459L428.924 264.674L427.201 260.602C428.53 260.128 429.339 262.212 430.378 262.338C431.777 262.512 434.11 259.963 434.095 263.309H434.09ZM418.933 183.849C419.523 183.32 425.278 182.902 425.737 183.36C426.097 183.715 425.677 186.832 427.696 187.463L426.891 189.041L419.383 188.355C419.273 188.205 419.388 187.29 419.138 186.713C419.048 186.508 417.429 185.206 418.933 183.849ZM412.439 216.362L412.429 215.02C413.178 214.847 414.192 214.523 414.647 213.624C414.727 213.466 415.371 210.096 415.371 209.899C415.381 206.782 412.249 208.573 410.95 207.523L411.435 213.647L409.951 211.611C408.942 211.745 408.412 214.35 408.587 215.352C408.667 215.809 409.421 215.383 409.511 216.693C409.596 217.94 409.217 219.858 408.967 221.121H410.67L410.935 222.478L408.747 223.843L407.083 221.697L408.387 217.514C405.63 213.908 405.255 208.707 409.451 207.508L409.027 202.157C409.491 201.155 412.214 202.268 411.914 200.397C411.475 197.627 410.57 200.255 410.186 197.967L409.296 198.101C407.553 199.49 406.879 201.423 406.759 204.122C404.306 202.52 404.631 197.738 403.556 194.605H413.403L413.843 202.023C413.538 202.512 410.066 202.189 410.45 204.809C412.529 203.87 415.206 205.369 415.871 208.202L416.855 207.863L416.36 203.451C417.889 204.43 416.92 208.881 419.318 207.184C419.373 206.071 418.728 203.372 418.109 202.686C417.125 201.605 416.131 203.601 415.386 201.755C417.155 199.49 416.58 197.959 415.871 195.299C418.114 194.313 420.517 194.242 422.75 195.331C421.751 197.714 422.875 200.311 424.733 199.719L423.259 195.299C426.157 196.278 427.621 201.431 425.228 204.13L427.686 204.825C427.84 205.038 426.222 207.879 426.312 209.133C426.457 211.232 429.829 213.568 426.517 214.973C423.884 212.787 426.157 208.849 425.687 205.527L422.765 204.809L422.755 207.523H424.733L424.738 218.406L425.223 217.056L426.716 216.67C428.545 219.574 426.072 222.77 428.67 224.877L427.661 225.65C428.03 227.41 428.045 228.799 427.206 230.322C427.97 232.105 428.934 230.164 430.103 230.709L430.633 232.366C430.983 234.52 428.405 232.808 427.925 232.003L427.446 233.392C426.247 233.455 425.717 231.095 425.053 230.172C424.613 229.564 422.565 230.117 423.759 226.574H422.27L422.765 223.172L425.223 224.53C425.258 222.075 423.639 221.862 425.223 219.771L422.755 220.442L423.259 219.092H422.28C422.1 220.797 421.616 221.436 420.302 221.121L421.776 219.069L419.802 216.007C422.015 215.17 419.313 211.075 420.302 208.881C419.423 208.904 417.17 208.407 416.915 209.946C417.295 211.082 417.115 213.316 417.474 214.152C417.629 214.515 418.379 214.586 418.563 214.981C419.787 217.617 417.834 217.822 417.844 218.019C417.979 220.379 419.682 220.923 420.087 221.799C420.512 222.715 419.722 223.867 419.777 224.782C419.792 225.003 422.295 226.116 419.807 227.56L421.781 232.674H419.323L419.812 228.602C418.444 228.625 417.539 229.343 417.844 231.316L416.87 231.301C415.236 228.87 416.945 227.513 415.381 225.2C415.741 224.719 419.882 230.022 418.823 226.905C418.424 225.721 416.92 225.587 417.839 223.157C416.72 222.936 415.991 225.429 414.857 224.214C413.623 222.896 414.677 216.441 412.434 216.338L412.439 216.362ZM414.897 278.721C414.767 278.965 414.827 280.812 413.912 279.636C413.558 279.178 413.228 276.645 414.157 276.243L414.647 277.6L415.681 275.509C416.22 275.738 416.805 275.895 417.215 276.479C417.334 276.645 417.359 277.482 417.569 278.003C417.689 278.302 418.249 278.247 418.259 278.594C418.264 279.028 417.729 279.912 417.874 280.623C418.469 283.495 419.573 285.949 419.323 289.161C416.59 288.861 417.379 285.026 416.835 282.903C416.7 282.382 416.091 282.438 415.916 281.846C415.836 281.585 415.741 277.119 414.902 278.721H414.897ZM417.354 302.08C417.265 300.706 417.569 299.041 417.28 297.739C417.15 297.155 414.887 295.893 415.881 294.598C417.414 292.594 418.389 299.097 419.817 298.67L419.328 295.277H420.801C420.577 298.086 419.667 301.527 417.359 302.072L417.354 302.08ZM423.764 349.697C423.569 349.437 423.294 343.4 423.01 342.232C422.22 338.98 420.412 337.662 420.792 333.717C420.881 332.801 421.126 331.61 421.776 332.699C421.911 336.668 424.913 334.845 422.795 339.454C425.013 340.519 425.228 344.481 424.244 346.982L425.657 347.045C425.997 350.005 425.837 349.934 423.764 349.697ZM428.705 329.905L428.425 327.924L425.722 329.968L426.681 325.951L425.233 324.87L426.452 321.808C427.556 322.456 427.141 325.873 427.191 327.246C429.004 326.875 430.328 327.664 431.133 329.96L428.7 329.897L428.705 329.905ZM430.648 325.21C432.332 322.416 430.943 321.903 430.543 319.504C430.358 318.407 430.693 317.208 430.613 316.813C430.558 316.529 428.854 315.503 429.669 312.978C430.543 312.694 429.989 314.114 430.158 314.335C430.303 314.517 431.752 312.331 432.616 312.978L432.646 320.033L431.632 320.79L433.076 323.426L430.643 325.202L430.648 325.21ZM435.324 350.376C434.02 350.376 433.471 341.45 433.111 339.501C434.654 340.685 435.709 338.081 437.537 338.822C436.328 342.902 438.326 347.7 435.324 350.368V350.376ZM436.063 330.655L437.022 327.025L439.016 326.575L437.537 325.896L437.547 324.886L440.025 323.473L440.984 327.238C438.057 327.104 438.971 330.868 436.068 330.655H436.063ZM440.24 377.609C440.04 376.623 438.901 370.759 440.245 370.807C440.544 370.823 441.459 372.48 441.504 373.214C441.638 375.36 439.265 376.149 441.968 376.931L440.24 377.609ZM441.973 350.384C442.153 348.868 441.898 348.576 440.984 348.008C442.198 347.558 442.498 340.756 443.687 341.545C445.42 342.697 444.356 350.407 441.973 350.384ZM448.353 326.172C448.992 324.413 450.786 321.366 451.48 319.599C451.69 319.062 451.305 317.918 451.39 317.823C451.865 317.334 453.153 317.863 453.543 315.677L455.541 317.736C455.671 318.139 453.918 321.982 453.578 322.921C453.508 323.111 452.889 323.126 452.809 323.647C452.639 324.776 453.039 327.419 452.754 327.877C452.524 328.24 446.659 329.566 451.815 332.359C449.911 334.758 448.418 335.997 445.915 336.786C444.986 335.745 447.743 327.838 448.353 326.18V326.172ZM452.799 338.144C453.298 338.965 449.557 346.02 450.456 347.566L451.325 348.34H449.362C449.652 344.607 449.806 339.564 452.799 338.144ZM455.971 381.697L454.557 380.955L454.277 382.352L453.303 381.003L452.809 384.396C454.577 383.559 455.147 382.202 456.735 384.743C454.522 387.292 451.465 391.514 449.866 385.801C452.944 385.193 449.791 377.941 453.303 377.601L453.059 378.967L454.992 378.233L455.511 379.63L458.714 374.871L459.208 378.927C457.834 379.385 456.58 379.874 455.976 381.689L455.971 381.697ZM467.936 319.93C467.521 321.153 467.756 323.071 467.346 323.876C467.226 324.105 465.633 325.912 464.643 327.648C464.229 328.382 463.295 328.485 463.18 328.706C462.975 329.1 463.699 330.647 463.634 331.649C463.539 333.109 461.806 336.573 462.151 338.83C459.633 337.213 460.142 340.945 461.172 342.895L458.269 342.831C458.174 341.9 457.849 340.89 457.894 339.951C458.054 336.605 459.203 339.738 460.167 337.812C459.123 336.163 460.537 329.558 462.081 330.528C462.565 329.566 462.38 327.948 462.675 327.072C462.9 326.393 464.249 326.685 463.629 325.202C463.559 325.028 462.39 326.883 462.655 324.878C465.068 323.395 464.678 318.455 465.563 316.805C465.897 316.182 466.727 316.363 467.016 315.969C467.861 314.832 468.175 312.788 469.539 312.97C471.143 318.218 468.725 317.586 467.931 319.93H467.936ZM469.549 310.926L470.528 307.533L469.06 308.211V306.183C472.022 306.838 470.843 302.616 473.721 302.088C475.224 303.461 472.712 304.755 473.581 306.736C473.726 307.067 474.935 307.32 474.955 307.864C473.556 311.384 472.312 311.21 469.549 310.926ZM476.473 241.11C476.338 240.107 479.98 235.049 480.869 236.107C479.84 238.545 478.626 245.434 476.473 241.11ZM484.127 278.184C483.617 280.63 483.237 283.25 480.869 283.037L482.533 279.249L484.781 276.85L483.827 274.199L486.285 273.512L485.8 276.914L486.779 277.576L484.132 278.168L484.127 278.184ZM494.922 260.586C494.433 261.912 493.084 261.643 492.784 262.133C492.359 262.827 491.42 265.076 490.711 266.378C489.672 268.304 488.593 270.261 487.509 272.139C485.291 268.904 487.094 269.732 487.254 268.967C487.454 267.988 487.399 263.829 487.763 263.309L489.232 264.666L490.226 259.568L488.738 259.213L489.237 256.498L491.211 257.564L492.215 254.809L491.201 254.123C493.059 252.552 493.044 252.513 493.169 249.696C492.115 249.854 490.536 252.379 490.361 252.418C489.882 252.521 489.182 251.787 488.703 252.071C487.838 252.576 487.773 255.283 487.009 255.82L485.86 254.36L490.141 244.582C487.344 242.751 488.283 238.308 484.801 240.178C484.646 238.292 486.215 237.701 487.259 237.448L486.28 234.741C487.519 234.11 489.212 236.154 489.952 237.472C491.65 240.494 493.344 245.876 493.169 249.704C493.528 249.648 493.873 249.648 494.163 250.011C496.106 253.673 495.362 254.344 494.872 257.855C494.747 258.763 495.172 259.907 494.917 260.586H494.922ZM565.061 201.407C565.166 203.333 564.767 204.414 563.573 205.188L564.082 207.516C561.724 207.145 562.474 209.409 561.834 210.877C561.45 211.761 560.605 212.306 560.401 212.929C560.106 213.813 561.335 215.32 559.901 214.997C558.422 211.903 560.366 207.366 561.59 204.604L565.061 201.4V201.407ZM568.019 233.368H565.066L565.591 231.048L568.019 227.939C567.32 229.801 567.3 231.49 568.019 233.368ZM567.439 219.692L564.082 221.128V217.048L566.54 217.727V214.326L567.859 215.312L567.434 219.684L567.439 219.692ZM560.63 186.106C561 188.284 557.523 187.574 556.699 188.481C556.134 183.707 558.437 183.233 560.63 186.106ZM554.241 202.425L554.965 201.431L556.124 202.055L557.643 196.262L560.131 195.97C560.52 197.738 558.892 197.675 558.707 198.085C558.512 198.519 560.82 203.988 556.689 203.459L557.643 205.748C556.634 207.121 555.964 208.139 556.189 210.262C555.08 208.983 555.33 210.925 554.231 210.948L555.21 212.29H553.237L553.721 217.711L551.743 218.879C551.109 222.462 553.022 222.502 552.747 224.151C552.532 225.429 550.254 226.092 549.345 225.855L548.361 222.991C549.11 221.649 549.11 219.874 549.575 218.477C550.439 215.873 552.417 210.128 553.372 207.713C553.796 206.64 556.579 205.061 554.236 202.441L554.241 202.425ZM551.743 246.689L552.712 246.018C552.323 244.779 551.488 241.694 553.247 242.222C553.262 245.276 553.671 245.016 555.06 246.145C556.749 247.518 555.175 249.775 553.746 248.338L553.477 250.437L550.374 250.288L549.805 247.675L552.263 248.346L551.743 246.697V246.689ZM552.263 184.401L551.803 187.503L549.315 187.802C549.06 185.19 550.579 184.038 552.263 184.409V184.401ZM538.509 228.357C541.822 220.828 543.8 212.258 546.932 204.588C547.567 203.033 549.845 197.517 550.549 196.657C551.159 195.915 551.433 195.781 552.263 195.962L552.537 198.022L550.01 199.324C550.734 201.644 549.44 201.258 549.325 201.881C548.861 204.383 548.726 208.107 548.341 210.451C548.216 211.209 547.052 211.146 546.882 212.022C546.727 212.803 547.357 213.805 547.252 214.231C547.177 214.523 545.119 217.183 544.609 219.053C543.635 222.636 543.21 224.837 541.632 228.546C540.987 230.062 539.913 231.782 539.219 233.36L537.985 230.653H539.464L538.514 228.357H538.509ZM525.376 261.88C526.135 259.836 526.78 255.228 528.623 255.82L527.144 255.141C526.95 253.91 527.789 253.57 528.019 252.584C528.223 251.716 527.959 250.209 528.213 249.806C528.373 249.546 529.347 249.711 529.857 249.033C530.252 248.512 530.277 247.423 530.611 246.784C532.3 243.556 532.69 241.536 534.043 237.937C534.598 236.462 537.435 232.974 538.465 235.759C537.106 237.701 536.671 241.528 536.501 244.258L535.033 242.901C534.273 246.01 534.363 253.405 531.091 252.426L532.07 250.043C529.228 249.372 530.182 258.558 527.149 257.879L528.133 258.558C526.52 260.515 528.623 262.022 527.904 264.666L523.707 266.718C523.333 264.445 524.826 263.38 525.376 261.888V261.88ZM501.052 293.241C499.678 293.438 500.268 293.178 500.093 292.199C499.538 289.13 496.826 280.07 497.12 278.089C497.14 277.963 498.279 276.148 498.594 276.566C500.602 279.234 499.658 282.745 500.203 284.229C500.438 284.868 501.357 284.308 500.562 287.796L502.031 286.439C503.39 290.692 501.177 290.116 501.047 293.241H501.052ZM502.531 268.091L500.632 267.294L500.078 259.229C502.601 261.383 504.819 266.583 504.894 270.656C504.969 274.846 500.937 272.044 502.536 268.091H502.531ZM508.201 263.995C509.395 263.679 511.598 270.49 511.393 270.79C510.784 271.689 508.176 266.394 507.926 265.708C507.636 264.911 507.292 264.232 508.201 263.995ZM511.853 318.928C511.733 318.383 510.913 318.399 510.903 318.013C510.868 316.939 511.578 315.266 511.433 313.293C511.208 310.239 508.94 306.136 509.924 302.088L510.908 304.123L512.377 303.453C512.882 306.475 511.828 309.9 511.873 312.607C511.938 316.497 513.976 321.177 513.856 325.217C512.082 325.438 512.217 320.609 511.853 318.936V318.928ZM514.865 270.3C513.521 261.367 516.823 265.226 518.457 264.603C519.226 264.311 520.36 261.138 520.265 259.907L521.734 260.61L520.655 267.949L518.017 268.667L517.288 271.674C516.988 273.41 514.925 270.727 514.86 270.3H514.865ZM519.771 342.563L521.239 342.216C520.225 336.274 520.905 330.102 519.251 324.365C519.096 323.821 518.282 323.844 518.312 323.552C518.377 322.913 519.071 321.887 519.131 320.704C519.236 318.541 517.757 315.274 518.262 312.662L519.771 311.62C517.663 311.336 519.181 309.363 517.782 307.927C517.942 305.457 519.726 303.91 519.766 303.65C520.011 302.056 519.261 299.988 520.515 298.686C522.428 301.44 520.085 304.834 520.26 307.17C520.39 308.914 522.044 309.687 522.089 310.595C522.104 310.902 521.504 311.478 521.509 311.92C521.619 319.188 522.548 324.578 522.388 331.775C522.294 336.116 523.917 338.333 524.137 339.943C524.267 340.89 523.393 341.782 523.383 342.571C523.368 343.668 524.881 345.27 524.691 345.617C524.656 345.688 523.997 345.491 523.857 345.775C522.354 348.75 526.31 353.761 523.228 355.837C522.034 351.054 522.888 346.027 519.776 342.571L519.771 342.563ZM525.176 369.434C523.852 368.723 522.748 364.273 524.687 364.659V363.996C522.533 364.517 523.333 355.568 524.452 358.528C524.986 359.704 524.382 361.337 524.846 362.458C524.931 362.663 525.671 362.608 525.686 363.01C525.741 364.344 524.652 367.461 525.176 369.426V369.434ZM527.154 327.648L526.17 327.246L527.164 324.878L526.14 324.16C527.234 320.222 525.136 316.087 526.905 312.299L527.599 314.73L530.102 315.022C528.388 317.768 529.198 320.127 529.008 322.669C528.968 323.213 528.238 323.868 528.183 324.839C528.109 326.18 528.553 328.627 529.617 328.966L529.587 329.952L528.588 330.386L529.617 337.812L528.638 338.822L527.134 333.725L528.163 333.038C528.218 331.278 525.955 329.929 527.159 327.656L527.154 327.648ZM529.113 346.114C528.938 347.109 529.422 349.855 527.679 348.308C526.35 347.132 527.589 342.216 530.102 344.268C530.546 346.106 529.253 345.301 529.108 346.114H529.113ZM531.076 274.499C530.971 275.454 529.362 282.453 529.113 282.714C528.768 283.077 528.094 283.014 527.644 283.045L529.118 287.796H527.144V291.197C525.96 292.089 526.225 288.64 525.186 289.848C524.662 290.455 524.497 294.472 522.803 289.65C523.677 285.263 525.526 281.538 526.85 277.521C527.569 275.343 528.243 271.958 528.893 270.143C532.325 260.531 536.871 251.842 540.113 242.215C540.353 241.504 539.958 240.226 540.468 239.232C541.727 236.793 543.875 238.987 544.394 238.513L544.874 235.412L543.4 234.741C547.342 235.42 546.677 230.527 547.811 226.858L550.289 227.26L547.826 230.338L549.305 233.376L547.367 232.713C546.153 235.286 547.252 236.446 546.807 238.782L544.384 238.837C544.804 242.98 542.506 242.42 540.448 243.603C540.678 245.308 542.631 243.035 541.427 245.632L542.901 245.963C541.917 247.841 540.223 250.082 540.937 252.434C539.933 253.468 538.944 251.937 538.719 251.953C537.261 252.071 537.291 256.088 537.975 257.532L537.485 258.234C536.162 257.485 536.167 259.292 536.002 260.933C536.077 261.801 537.89 260.491 537.48 262.291C537.151 263.743 536.436 263.466 536.191 261.951L534.573 262.014C533.933 263.458 534.613 266.828 534.168 267.893C533.614 269.235 530.766 271.966 530.671 272.258C530.571 272.565 531.161 273.662 531.071 274.514L531.076 274.499ZM544.879 255.82C545.264 253.862 545.663 252.371 544.929 250.437L545.868 250.043C545.933 249.459 544.225 250.106 544.879 248.346C546.622 248.93 546.488 245.924 548.301 246.263C547.951 243.114 546.627 241.512 549.305 239.5V248.346L548.401 247.754C548.326 249.767 546.538 250.138 546.093 251.085C545.558 252.213 546.897 256.269 544.884 255.82H544.879ZM531.62 288.23C533.404 286.439 532.814 284.316 533.449 281.862C534.148 279.147 536.501 278.65 536.017 275.548L538.969 277.6C539.224 278.097 536.976 280.267 536.736 281.017C536.471 281.846 537.021 282.864 536.961 282.974C536.846 283.203 534.748 283.535 534.568 284.797C534.463 285.555 535.222 286.502 535.297 287.433C535.637 291.465 531.201 290.708 531.615 288.222L531.62 288.23ZM534.533 325.217C533.963 327.435 536.052 329.668 535.827 331.326C535.672 332.446 534.938 333.133 534.813 333.977C534.598 335.445 535.497 338.136 534.053 338.815C532.625 336.131 532.225 334.735 532.24 331.294C532.25 328.642 532.175 324.886 534.538 325.21L534.533 325.217ZM537.96 384.372L534.048 383.717C533.933 382.289 535.747 383.402 536.017 383.039C536.381 382.565 534.863 379.756 536.256 378.975L538.445 380.379L537.96 384.372ZM537.49 376.228H536.017C535.382 373.892 537.246 374.145 537.45 373.095C537.535 372.661 537.435 367.942 536.501 368.424L537.021 366.735L537.98 367.406L538.47 365.354L537.49 376.228ZM537.99 363.989C537.206 361.495 537.95 360.54 538.954 358.575C537.6 358.875 538.15 356.855 537.96 356.523C537.855 356.342 535.332 357.62 535.028 355.15L537.485 354.456L536.501 352.427L539.943 351.062C539.973 355.513 540.433 360.461 537.98 363.981L537.99 363.989ZM541.617 338.207C540.952 338.838 539.718 338.207 539.424 338.483C538.919 338.965 539.089 339.967 538.964 340.18C540.768 341.04 540.638 341.506 541.422 343.952L540.448 344.662L540.438 349.697C539.299 349.129 538.694 348.821 538.959 346.974L536.506 347.653C536.201 345.696 538.664 345.743 539.454 344.93C539.569 343.66 537.625 344.473 537.54 343.257C537.455 342.034 538.505 340.969 538.964 340.172C538.734 340.061 538.23 340.369 537.82 340.172C537.281 339.912 537.925 338.12 536.012 339.493L536.331 337.449C541.297 339.004 537.076 330.252 537.545 329.376C537.64 329.203 538.49 329.053 538.939 328.185C539.434 327.23 539.019 325.415 539.564 324.697C540.168 323.892 541.432 324.113 542.141 322.448C543.245 319.859 542.876 319.244 541.432 317.728C542.636 317.602 543.22 317.192 543.645 315.685L544.909 318.723C543.4 319.046 543.245 323.537 544.874 323.182V323.844C543.605 324.105 542.431 326.101 542.871 327.885L541.432 327.94C542.611 330.513 540.278 333.259 542.911 334.735C543.096 332.486 544.279 331.412 543.38 329.061C546.038 325.754 545.843 330.892 545.364 333.377L543.875 332.975C543.555 333.63 541.812 338.025 541.627 338.199L541.617 338.207ZM553.137 335.776C553.097 336.092 552.348 336.037 552.278 336.558C550.964 346.201 550.469 354.613 548.316 364.194C548.136 364.999 546.882 364.225 547.347 366.033L548.326 366.711L547.397 367.027L547.836 368.755L546.333 369.197L545.119 382.352C544.349 383.954 543.35 384.712 541.927 384.396C541.842 382.707 542.726 381.208 542.906 379.937C543.135 378.335 543.036 378.604 543.3 377.278C543.455 376.497 542.971 374.405 543.081 373.814C543.24 372.938 544.354 373.095 544.434 372.401C544.519 371.643 543.875 370.349 543.945 369.173C544.135 365.89 547.012 359.483 546.268 356.839C546.128 356.342 545.009 356.878 545.379 355.505C545.728 354.219 546.807 355.245 546.847 355.158C546.947 354.921 546.503 353.556 546.682 352.57C546.852 351.63 547.622 350.652 547.652 350.036C547.717 348.592 546.677 344.26 547.067 341.49C547.227 340.346 550.054 337.631 548.821 334.064H551.283C550.984 331.333 550.129 328.769 552.782 328.271C553.172 324.878 551.214 324.436 551.283 324.207C551.488 323.545 552.183 322.992 552.752 323.182C554.136 327.419 553.696 331.318 553.137 335.784V335.776ZM564.082 269.432C564.337 268.162 564.112 262.078 565.311 261.967C566.865 261.825 565.171 265.502 565.181 265.7C565.241 266.686 568.404 268.612 564.082 269.432ZM565.561 246.981C564.922 242.956 564.417 247.526 564.042 248.504C563.758 249.254 562.719 248.835 563.083 250.729C563.148 251.069 563.718 250.982 563.763 251.053C565.066 253.334 561.24 251.519 562.609 255.141L561.095 255.496L561.614 260.586L560.146 259.229C560.825 263.214 558.677 266.836 560.136 270.79L558.177 268.746C557.438 270.987 557.693 275.225 557.153 277.056C556.629 278.839 555.64 279.652 555.055 283.179C554.775 284.876 555.999 285.302 553.741 285.081C554.815 288.49 553.007 291.087 552.377 293.723C551.658 296.737 550.654 300.044 550.04 302.742C549.78 303.887 549.025 310.618 548.811 310.91L545.379 310.232C544.839 307.722 547.492 309.379 547.841 308.882V306.838L546.857 307.525L546.423 304.415C548.711 303.153 547.232 300.722 547.367 298.434C547.517 295.893 549.06 294.117 547.342 291.884C548.866 292.334 551.004 288.94 548.821 288.135C551.288 286.115 550.569 283.898 551.238 281.333C551.613 279.889 552.942 277.135 553.037 276.251C553.197 274.751 550.914 274.522 554.526 272.865C553.551 268.919 554.9 269.961 555.62 268.296C556.404 266.473 556.704 262.575 557.338 260.436C558.582 256.238 560.366 252.095 561.48 247.794C561.974 245.884 562.574 239.752 562.868 238.766C563.138 237.858 564.852 236.84 564.642 234.828L567.035 234.733L566.87 237.961L568.514 240.163C567.01 240.739 566.191 241.875 564.582 240.857C564.017 241.607 568.039 246.16 565.566 246.981H565.561ZM569.982 210.925C568.199 209.701 569.018 206.932 569.003 204.801C572.525 204.69 570.087 208.194 569.982 210.925ZM570.147 199.577C570.037 199.79 569.463 204.067 568.299 203.412L566.55 201.06C566.865 199.948 567.984 200.76 568.264 200.09C568.648 199.166 569.673 195.007 569.498 193.926H571.961L570.487 195.954L572.45 196.294C572.14 197.825 570.627 198.653 570.152 199.577H570.147ZM575.887 227.939L574.913 227.252C575.552 229.43 574.169 229.991 574.119 230.148C573.794 231.158 574.159 233.06 572.69 234.055C571.301 230.961 573.01 229.438 573.324 227.402C573.854 223.954 574.104 220.466 574.913 217.048L577.076 217.798L577.855 216.37C578.665 219.282 576.302 221.831 576.047 223.614C575.902 224.609 576.577 226.503 575.887 227.931V227.939ZM579.499 201.912C579.339 202.702 577.726 203.814 577.551 204.351C577.011 206.024 577.146 209.244 576.761 210.096C576.577 210.498 575.707 210.609 575.373 211.209C574.708 212.392 575.158 214.476 573.929 215.013C574.323 213.166 572.5 212.195 572.505 211.998C572.76 205.551 576.112 199.671 575.393 193.248C577.726 193.366 578.64 190.825 580.738 193.358C581.297 194.668 579.634 197.107 579.424 198.527C579.254 199.671 579.719 200.776 579.489 201.912H579.499ZM584.265 187.447L582.042 189.831L581.802 188.505C578.38 186.832 575.073 188.686 571.191 188.521C569.937 188.465 568.638 187.337 568.274 187.376C567.404 187.463 565.951 189.586 564.072 187.795L564.632 185.175L569.468 185.135L569.498 187.124C570.307 187.392 569.688 186.106 570.332 185.79C572.615 184.654 574.713 186.161 576.766 186.272C578.77 186.374 580.858 185.877 583.026 186.406C583.745 186.579 584.47 185.901 584.255 187.463L584.265 187.447Z" fill="#2D00F7"/>
<path d="M733.737 185.024C740.493 187.264 762.084 199.599 761.341 207.52C759.614 225.941 790.238 218.146 806.576 216.963C809.419 216.758 816.272 216.468 817.794 216.239C818.681 212.568 815.753 209.802 815.348 207.303C814.268 200.583 812.396 194.056 810.705 187.499C810.404 186.316 809.347 185.452 808.876 184.299C805.416 175.852 802.398 167.098 798.473 158.995C795.871 153.622 792.206 148.936 788.626 144.402C786.881 142.186 785.166 140.592 786.289 138.322C782.28 136.233 778.682 134.416 775.125 132.484C762.603 125.697 749.157 124.502 735.832 122.678C729.637 121.827 723.388 120.855 717.182 121.018C708.952 121.235 700.662 121.906 692.542 123.493C684.596 125.045 676.826 127.992 668.989 130.346C668.204 130.582 666.888 130.817 666.773 131.355C665.837 135.835 662.516 135.611 659.956 136.988C657.076 138.533 654.257 140.272 651.503 142.126C641.137 149.087 633.807 160.028 626.58 171.095C619.51 181.92 614.559 194.364 611.317 207.351C607.543 222.451 605.249 238.18 604.542 254.083C604.355 258.345 604.711 262.687 605.14 266.937C605.792 273.397 607.929 279.453 607.96 286.191C608.002 294.553 609.849 302.572 612.898 310.227C617.028 320.6 620.361 331.371 626.574 340.428C635.419 353.318 645.955 363.588 657.432 372.506C664.297 377.843 671.555 382.269 679.609 384.461C680.678 384.751 682.429 387.057 682.247 387.594C680.931 391.452 683.075 392.249 685.109 392.551C690.592 393.36 696.17 393.348 701.586 394.514C710.606 396.458 719.585 396.808 728.647 395.437C731.038 395.075 733.447 394.773 735.85 394.731C741.64 394.628 747.43 394.701 753.396 394.701V392.449C755.974 391.217 758.353 389.641 760.888 388.941C772.016 385.862 781.459 379.184 790.057 370.067C797.537 362.133 802.301 352.099 807.324 341.895C814.678 326.952 818.186 310.801 820.432 293.907C821.483 286.028 823.04 278.252 824.302 270.415C824.532 268.99 824.713 267.426 824.471 266.044C823.813 262.252 822.63 258.575 822.195 254.759C821.664 250.11 821.042 245.244 821.628 240.697C822.292 235.499 821.851 233.549 817.582 233.796C806.467 234.442 797.314 235.016 782.823 233.706C776.943 233.174 768.321 230.481 762.543 231.967C760.876 232.395 758.624 234.967 758.66 238.638C758.685 241.434 758.292 241.5 757.749 244.229C756.282 251.565 754.978 258.998 752.931 266.098C751.5 271.079 749.024 275.631 746.887 280.28C745.83 282.581 744.756 285.05 743.204 286.789C738.821 291.71 735.077 298.092 728.134 297.953C727.313 297.935 726.498 299.124 725.634 299.643C724.028 300.609 722.452 301.926 720.744 302.312C716.705 303.23 712.587 304.274 708.517 304.171C703.76 304.051 698.567 304.28 694.317 301.823C679.265 293.123 672.436 277.304 668.161 263.284C666.574 258.068 663.482 230.735 668.059 214.258C668.258 213.546 669.309 211.372 669.761 210.768C669.78 211.191 670.921 209.15 669.761 210.768C672.104 207.496 676.512 196.574 685.713 188.532C696.364 179.221 727.313 182.868 733.761 185.006L733.737 185.024ZM802.44 201.259C799.524 202.454 796.994 203.499 794.035 204.713C793.788 203.414 793.564 202.255 793.534 202.098C795.05 201.054 796.191 200.637 796.885 199.719C798.998 196.93 799.349 196.9 802.434 201.259H802.44ZM787.219 168.643C789.791 169.283 791.693 169.76 793.758 170.274C792.043 173.655 789.495 173.214 787.219 168.643ZM785.293 150.265C786.929 150.609 788.601 150.802 790.171 151.418C790.521 151.551 790.86 153.573 790.546 154.008C789.96 154.817 788.891 155.107 787.146 156.121C787.829 154.286 788.094 153.573 788.378 152.819C787.37 152.547 786.217 152.227 785.057 151.913C785.136 151.364 785.214 150.814 785.293 150.265ZM781.887 176.746C783.644 178.992 785.365 181.202 787.201 183.55C785.83 184.341 793.655 202.593 789.284 202.521C790.648 197.564 777.884 182.379 781.887 176.746ZM783.167 263.302C783.572 263.574 783.983 263.846 784.387 264.117C781.133 271.351 777.891 278.596 774.564 285.781C774.419 286.095 773.531 285.895 772.3 285.98C776.115 278.016 779.641 270.662 783.167 263.302ZM771.66 311.296C772.064 311.61 772.463 311.924 772.867 312.238C771.466 314.436 771.34 317.913 767.421 317.599C768.834 315.498 770.247 313.397 771.66 311.296ZM732.058 348.029C731.968 347.359 731.877 346.689 731.793 346.019C736.943 345.017 742.099 344.014 747.249 343.012C747.249 343.513 747.249 344.014 747.255 344.515C742.19 345.687 737.124 346.858 732.058 348.023V348.029ZM738.368 355.19C735.277 355.564 732.191 355.945 729.1 356.319C729.112 355.818 729.118 355.317 729.13 354.816C732.185 354.58 735.234 354.345 738.289 354.109C738.313 354.472 738.344 354.828 738.368 355.19ZM755.805 349.69C760.417 347.564 765.085 348.869 770.18 346.158C768.333 350.245 748.173 354.755 740.831 353.252C745.842 352.141 751.107 351.851 755.799 349.69H755.805ZM751.904 341.937C755.563 341.056 759.222 340.168 763.364 339.166C761.649 341.901 756.958 342.988 751.904 341.937ZM761.335 315.915C760.701 322.478 757.061 321.512 753.776 322.134C754.76 316.941 758.087 317.11 761.335 315.915ZM747.4 324.211C745.13 323.927 743.005 323.661 740.101 323.293C745.058 319.64 746.821 319.882 747.4 324.211ZM762.748 326.439C762.863 327.085 762.983 327.731 763.098 328.383C755.527 330.562 747.932 332.615 740.396 334.958C732.807 337.318 725.206 338.973 717.308 337.566C732.511 333.841 747.63 330.14 762.742 326.439H762.748ZM723.026 358.245H710.492C710.522 357.907 710.552 357.563 710.582 357.225C714.7 356.899 718.824 356.573 722.941 356.247C722.966 356.911 722.996 357.581 723.02 358.245H723.026ZM701.574 339.275H716.849C716.849 339.631 716.862 339.987 716.868 340.343H701.562C701.562 339.987 701.574 339.631 701.58 339.275H701.574ZM696.617 313.898C694.033 312.715 691.648 311.628 689.354 310.577C691.123 308.452 695.585 310.07 696.617 313.898ZM685.949 321.79C689.149 322.303 692.355 322.81 696.339 323.45C693.731 325.026 691.914 326.988 690.139 326.928C688.629 326.879 687.168 324.506 685.689 323.16L685.949 321.79ZM683.552 307.619C683.382 307.999 683.22 308.38 683.05 308.76C680.273 306.49 676.161 307.384 674.815 302.082C677.725 303.93 680.635 305.772 683.546 307.619H683.552ZM666.676 157.214C666.646 156.761 666.616 156.302 666.586 155.85C668.439 155.747 670.293 155.68 672.14 155.523C673.209 155.433 674.628 155.681 675.274 154.95C679.144 150.615 684.475 152.601 688.418 148.882C688.581 149.474 688.744 150.071 688.907 150.663C683.66 153.646 678.468 156.785 673.137 159.514C671.766 160.215 669.387 160.855 669.538 156.743C668.602 156.894 667.636 157.051 666.67 157.208L666.676 157.214ZM672.859 184.45C672.647 184.323 672.43 184.197 672.219 184.07C673.734 182.415 675.129 180.489 676.856 179.276C677.315 178.956 678.782 180.803 680.104 181.92C676.952 183.019 674.906 183.732 672.859 184.444V184.45ZM686.794 163.928C683.171 164.604 679.941 168.197 676.445 170.28C675.298 170.962 673.879 170.95 672.581 171.252C672.466 170.745 672.352 170.243 672.237 169.736C679.06 165.419 685.888 161.108 693.26 156.441C691.666 160.384 690.767 163.185 686.788 163.928H686.794ZM757.797 135.979C757.845 135.533 757.888 135.086 757.936 134.639L751.065 134.699C755.563 127.943 761.178 131.234 766.516 131.578C766.715 131.94 766.962 132.26 767.095 132.641C767.82 134.772 768.52 136.909 769.226 139.053H760.424C760.411 138.878 760.405 138.702 760.393 138.527C760.846 138.352 746.935 141.601 747.092 139.765C745.504 139.053 759.125 136.577 757.797 135.986V135.979ZM700.717 147.644C704.237 143.605 706.67 143.255 710.456 146.268C707.117 146.739 704.303 147.137 700.717 147.644ZM723.865 132.441C723.056 132.592 699.805 138.769 698.996 138.896C698.187 139.022 697.36 139.276 696.563 139.173C692.427 138.654 688.744 140.484 684.958 142.108C683.419 142.766 681.535 142.216 679.808 142.216L679.766 140.659C686.595 136.33 716.427 131.415 723.865 132.435V132.441ZM677.52 141.238C677.798 141.776 678.081 142.313 678.365 142.85C672.611 146.183 666.857 149.516 661.103 152.849C665.034 145.404 671.494 143.822 677.52 141.232V141.238ZM670.057 204.87C670.341 205.407 670.619 205.944 670.903 206.482C665.149 209.814 657.064 220.29 651.31 223.623C655.241 216.178 664.038 207.46 670.063 204.87H670.057ZM657.789 162.962C658.115 163.306 658.441 163.65 658.767 163.988C656.835 166.868 654.903 169.742 652.971 172.622C652.554 172.224 648.624 175.309 648.213 174.911C650.236 172.091 655.772 165.781 657.795 162.962H657.789ZM644.898 187.578C645.671 184.746 646.885 184.529 648.515 185.688C646.77 191.206 645.073 196.556 643.383 201.911L641.837 200.975C642.839 196.501 643.697 191.967 644.904 187.572L644.898 187.578ZM638.154 208.486C636.705 213.974 635.25 219.463 633.801 224.951C633.312 224.758 632.829 224.565 632.34 224.371C633.765 218.75 635.19 213.135 636.615 207.514C637.128 207.834 637.641 208.16 638.154 208.48V208.486ZM631.863 204.441C633.252 199.146 634.64 193.845 636.029 188.55C636.385 188.676 636.735 188.803 637.092 188.924C635.884 194.267 634.682 199.605 633.475 204.948C632.938 204.779 632.4 204.61 631.863 204.441ZM637.092 175.14C637.176 186.243 617.747 231.121 612.319 236.869C610.181 226.75 630.311 182.186 637.092 175.14ZM717.145 392.684C711.965 395.83 704.979 392.431 697.698 390.921C690.477 389.424 684.995 381.581 678.697 376.769C676.928 375.416 675.117 374.806 673.275 374.511C671.79 370.622 669.278 368.787 666.561 367.362C660.258 361.089 652.796 359.978 646.347 354.357C646.329 354.598 646.311 354.84 646.293 355.087C644.023 353.475 641.535 352.189 641.203 348.446C640.998 348.289 640.787 348.144 640.563 348.011C640.11 347.25 639.651 346.484 639.199 345.723C638.758 344.866 638.323 344.008 637.882 343.151C633.765 335.302 629.273 327.779 625.415 319.676C622.625 313.82 620.071 308.018 618.743 301.569C619.178 298.786 617.312 296.975 616.346 294.783C616.117 291.824 614.837 289.307 613.514 286.807C612.307 274.768 610.103 254.348 607.911 242.321C610 240.438 611.902 249.229 614.239 246.644C613.424 258.08 612.838 271.677 618.399 279.991C616.527 288.673 624.811 295.332 627.938 303.344C628.572 304.975 629.194 306.985 630.052 308.778C630.305 308.549 630.595 308.307 630.921 308.066C630.963 308.923 631.006 309.738 631.048 310.535C632.068 312.045 633.402 313.162 635.28 313.325C640.219 317.382 643.522 323.722 647.241 329.475C647.579 329.856 647.917 330.23 648.255 330.611C651.359 333.889 654.462 337.161 657.565 340.44C659.026 346.115 663.011 348.096 666.018 351.507C667.081 352.715 668.397 355.166 669.369 353.584C670.407 351.893 668.482 350.185 667.588 348.398C665.36 343.96 661.574 342.988 659.111 339.287C658.242 337.657 657.366 336.032 656.491 334.402C656.702 335.604 656.913 336.829 657.143 338.097C654.685 336.89 651.491 330.049 652.125 327.604C651.401 326.499 650.67 325.4 649.946 324.295C648.974 321.783 647.507 320.014 645.653 318.849C644.077 315.921 642.242 313.119 641.046 309.998C640.455 308.464 623.374 275.607 624.678 273.874C625.789 272.401 642.604 302.342 644.373 304.322C645.055 307.685 647.893 307.051 649.04 309.551C649.336 311.598 650.725 311.664 651.667 312.534C652.089 313.391 652.512 314.254 652.934 315.112C653.267 315.516 653.593 315.921 653.925 316.325C658.719 321.494 661.351 329.838 667.147 333.527C668.868 336.642 670.16 340.114 672.961 342.106C674.706 343.35 675.992 343.936 677.49 342.626C679.18 341.146 678.655 339.081 677.93 336.787C677.719 336.123 677.472 335.471 677.212 334.831C676.409 332.826 667.177 323.245 668.608 322.363C669.906 321.56 679.814 330.84 680.804 332.174C684.88 337.651 688.406 344.165 693.864 347.184C695.675 349.14 697.644 350.499 699.654 351.718C699.805 351.507 699.956 351.284 700.113 351.024C700.892 349.72 703.73 350.004 705.625 350.034C707.986 350.07 710.341 350.589 712.696 350.903C712.702 351.471 712.708 352.032 712.714 352.6C710.884 352.727 709.043 352.721 707.225 352.998C705.807 353.216 704.388 353.445 702.969 353.681C705.01 354.9 707.02 356.241 708.874 358.173C709.87 358.855 710.866 359.531 711.868 360.213C713.022 361.252 714.181 362.29 715.334 363.323C715.648 363.679 715.889 364.005 716.059 364.313C717.188 363.607 718.311 362.755 719.458 362.713C723.177 362.586 726.938 363.431 730.628 363.057C733.731 362.743 736.744 361.204 739.817 360.304C741.562 359.797 743.337 359.447 745.106 359.108C752.013 357.78 758.926 356.464 765.839 355.19C766.715 355.027 767.62 355.166 768.593 355.993C751.421 361.735 734.19 366.746 716.191 365.919C716.065 366.215 715.853 366.523 715.545 366.849C712.623 369.928 709.327 372.12 705.631 373.472C704.798 371.13 703.554 369.324 701.954 368.25C701.9 368.6 701.84 368.95 701.785 369.3C700.33 369.028 698.881 368.757 697.426 368.479C697.42 368.932 697.462 369.481 697.577 370.176C697.782 375.646 700.759 377.294 703.874 378.755C704.798 379.311 705.716 379.872 706.64 380.428C709.399 381.979 712.158 383.573 714.923 385.065C716.686 386.012 734.19 387.89 733.888 390.818C733.646 391.7 717.381 391.815 717.139 392.696L717.145 392.684ZM717.508 379.353C716.415 379.492 715.28 379.063 714.163 378.894C714.163 378.302 714.163 377.717 714.163 377.125C717.797 375.483 721.619 376.817 725.797 376.938C725.296 375.996 724.964 375.374 724.372 374.275C725.725 374.185 726.824 373.689 727.512 374.136C730.241 375.917 732.481 375.416 735.343 373.907C736.889 373.092 739.273 374.179 741.61 373.14C744.774 371.733 748.523 372.452 751.934 371.685C756.088 370.749 760.146 369.21 764.251 367.96C764.934 367.748 765.646 367.67 766.34 367.525C766.516 367.936 766.697 368.346 766.872 368.757C765.507 369.662 764.221 370.973 762.766 371.395C757.634 372.881 752.478 374.426 747.255 375.277C737.366 376.896 727.434 378.079 717.508 379.353ZM741.839 385.366C741.719 384.702 741.598 384.038 741.477 383.374C752.375 380.416 763.279 377.457 774.177 374.499C774.286 375.108 774.395 375.718 774.503 376.328C763.611 379.341 752.725 382.354 741.833 385.366H741.839ZM772.728 309.485C771.436 305.796 774.926 299.746 778.488 299.843C778.271 304.649 777.118 308.476 772.728 309.485ZM779.273 291.758C781.875 287.151 784.103 283.209 786.331 279.272C784.441 290.2 783.343 292.344 779.273 291.758ZM783.506 310.384C782.932 306.605 784.019 304.123 785.299 301.213C790.956 288.323 796.124 275.106 801.534 262.047C803.128 258.201 804.933 254.481 806.733 250.508C807.554 255.882 788.451 305.029 783.506 310.39V310.384ZM785.293 368.606C789.936 361.874 794.579 355.142 799.222 348.41C796.843 357.527 791.258 363.268 785.293 368.606ZM803.913 340.422C802.017 336.455 803.72 332.573 807.976 332.452C806.678 335 805.386 337.542 803.913 340.422Z" fill="#2D00F7"/>
<path d="M374.326 184.773C372.467 178.309 371.074 171.556 368.151 165.566C360.892 150.668 350.943 137.577 339.833 125.211C332.574 117.125 325.054 109.724 315.608 104.304C310.876 101.589 305.93 99.0289 301.807 95.5315C292.671 87.7735 281.967 82.8463 270.934 79.2426C255.817 74.3057 239.974 73.6874 224.121 75.6003C218.062 76.3346 211.839 78.3248 205.984 77.5422C198.88 76.5858 192.715 78.1799 186.269 80.2184C177.114 83.1168 170.407 89.7541 162.964 95.2031C155.59 100.604 148.554 106.526 141.808 112.69C136.785 117.289 132.449 122.641 127.426 128.071C127.184 126.602 126.894 125.578 126.865 124.544C126.642 115.395 126.265 106.246 126.371 97.0967C126.42 92.6138 127.407 88.1407 128.026 83.2327C126.507 82.4115 123.894 80.9913 122.026 79.9769C119.723 80.344 117.787 80.9623 115.871 80.8947C112.106 80.7595 108.341 79.9093 104.586 79.9576C91.4623 80.1121 78.3387 80.4889 65.2054 80.8367C62.0987 80.914 59.4663 81.7159 59.1856 85.5611C58.6243 93.2225 57.7436 100.874 57.4243 108.545C56.3597 133.713 55.5467 158.9 54.5111 184.077C53.6691 204.433 52.4496 224.77 51.7624 245.127C51.2108 261.464 52.0528 277.888 50.5817 294.129C49.8559 302.08 45.5685 309.809 42.2586 317.374C41.4069 319.316 38.3389 321.064 36.0451 321.451C27.2283 322.939 18.3341 324.127 9.42053 324.871C2.12321 325.48 2.21036 325.142 2.21036 332.233C2.21036 336.397 1.70714 340.551 1.53293 344.715C1.16517 353.652 0.971545 362.589 0.506994 371.516C0.274719 375.989 2.62653 376.085 6.21713 376.163C13.8435 376.317 21.5763 376.501 29.0382 377.892C36.4903 379.283 43.6522 382.153 51.2108 384.452C51.2786 384.752 51.5108 385.36 51.5496 385.979C52.0819 393.34 52.4787 400.712 53.1852 408.055C53.3207 409.484 54.666 410.798 55.4499 412.17C56.5532 411.224 57.8017 410.393 58.7017 409.282C59.3792 408.451 59.7663 407.301 60.0179 406.238C62.0213 397.91 58.8565 388.674 64.5666 380.945C66.2893 378.617 67.1508 375.622 69.009 373.458C71.0511 371.071 73.761 369.226 77.2645 371.274C78.3291 371.892 79.4808 372.665 80.6518 372.781C86.7781 373.371 92.9236 373.709 99.0499 374.259C101.286 374.462 104.083 374.298 105.583 375.544C110.78 379.853 115.89 376.791 121.252 376.655C121.135 375.341 120.99 374.559 121 373.776C121.087 368.192 120.99 362.589 121.407 357.024C121.639 353.942 123.391 350.908 123.352 347.865C123.032 322.398 122.239 296.931 122.065 271.454C121.987 259.957 121.416 248.305 125.8 237.185C127.494 232.886 128.278 228.239 129.807 223.862C132.778 215.37 136.069 206.849 143.221 200.965C150.867 194.666 158.987 188.927 167.097 183.217C169.217 181.729 172.294 181.652 174.52 180.261C180.646 176.445 186.376 171.972 192.609 168.339C199.993 164.04 208.074 162.107 216.727 163.45C219.398 163.866 222.098 164.214 224.788 164.426C235.328 165.257 245.906 165.721 256.388 166.967C260.743 167.489 265.001 169.402 269.134 171.102C274.873 173.469 280.602 175.952 286.032 178.937C289.177 180.667 291.529 183.797 294.578 185.749C306.337 193.294 315.279 203.467 322.78 215.071C323.806 216.655 325.18 218.017 326.409 219.505C333.339 215.389 342.03 218.191 348.437 212.877C350.837 210.887 353.556 209.052 356.431 207.892C365.151 204.366 368.964 196.347 373.948 189.42C374.732 188.318 374.722 186.203 374.316 184.773H374.326ZM33.2289 345.401C31.2739 341.266 29.948 338.474 28.6221 335.682C28.7672 335.634 30.1318 335.16 31.4965 334.687L31.3706 334.793C32.532 336.832 33.9547 338.774 34.7289 340.938C35.0483 341.836 34.0128 343.227 33.2289 345.401ZM51.4819 353.42C48.9559 352.106 46.4298 350.792 43.9038 349.478C44.9877 348.58 46.1782 347.594 47.3783 346.599C48.8204 348.387 50.4946 350.454 52.1593 352.522C51.927 352.821 51.7044 353.13 51.4722 353.43L51.4819 353.42ZM45.433 334.078L44.6684 327.663C45.3265 327.567 45.9847 327.47 46.6428 327.373C47.0589 329.228 47.475 331.083 47.8912 332.938C49.401 330.156 50.3689 327.634 55.0918 331.557C51.2592 332.561 48.3461 333.315 45.433 334.078ZM65.6893 347.304C65.0893 347.43 64.4893 347.556 63.8892 347.681C63.0956 343.44 62.3117 339.199 61.6439 335.653C62.1762 332.745 62.6407 330.214 63.2795 326.736C69.1541 333.972 63.1827 340.918 65.6796 347.304H65.6893ZM65.3797 135.578C64.0441 129.172 63.2892 122.825 66.6088 115.878C70.6446 123.433 65.9797 129.375 65.3797 135.578ZM70.3446 113.183C72.4641 105.367 74.5835 97.5507 76.6934 89.7251C77.4096 89.9183 78.1161 90.1116 78.8323 90.3048C76.6547 98.1208 74.4675 105.946 72.2899 113.762C71.6415 113.569 70.993 113.366 70.3446 113.173V113.183ZM81.4841 357.555C80.9809 357.632 80.4776 357.71 79.984 357.787C79.742 353.942 71.8737 355.323 74.7578 349.411C76.945 349.527 79.1129 349.633 81.9099 349.778C81.7744 352.193 81.6293 354.879 81.4841 357.555ZM83.1778 100.594C83.623 97.4348 83.5455 94.0437 84.794 91.2516C85.2489 90.2275 88.8878 90.6333 91.5493 90.3338C88.9749 94.691 86.991 98.0531 84.9973 101.406C84.3876 101.135 83.7778 100.865 83.1681 100.594H83.1778ZM89.4976 342.397C89.4685 342.474 89.4395 342.551 89.4105 342.628C90.0492 343.276 91.1236 343.904 91.1429 344.57C91.2978 349.826 91.23 355.082 91.23 360.347C87.7555 359.207 86.778 349.362 89.4202 342.628C89.4008 342.609 89.3718 342.58 89.3525 342.561C89.3815 342.503 89.4105 342.454 89.4395 342.416C88.6943 342.57 87.9491 342.715 87.2038 342.87C88.1523 336.551 89.0911 330.33 90.0299 324.108C90.4751 324.156 90.9203 324.214 91.3752 324.262C91.801 330.388 93.5528 336.6 89.4395 342.406C89.4589 342.406 89.4782 342.406 89.4976 342.397ZM90.3686 175.537C92.4397 166.716 94.5109 157.895 96.582 149.084C97.2789 149.248 97.9756 149.412 98.6821 149.577L92.4785 176.049C91.772 175.875 91.0751 175.711 90.3686 175.537ZM97.2788 316.369L99.1371 295.027C98.5757 298.737 98.024 302.36 97.4723 305.983C97.3368 305.945 97.2111 305.906 97.0756 305.858C96.4272 299.24 95.769 292.612 95.0916 285.752C95.9626 284.806 97.5402 283.076 99.2532 281.202C99.4565 281.328 99.8919 281.598 100.289 281.84C100.627 277.975 100.966 274.101 101.295 270.236C101.992 270.294 102.689 270.352 103.386 270.42C102.544 278.603 101.702 286.777 100.86 294.96C106.076 298.38 107.741 302.438 105.389 305.346C103.918 302.254 102.505 299.259 100.792 295.646C100.076 302.592 99.3597 309.548 98.6435 316.495C98.1886 316.456 97.7337 316.417 97.2788 316.379V316.369ZM105.137 351.778C104.45 351.845 103.773 351.913 103.086 351.981C102.708 348.957 102.341 345.923 101.905 342.397C101.866 342.377 100.957 342.078 98.9919 341.411C101.16 340.793 102.234 340.484 102.563 340.387C102.786 335.373 102.999 330.822 103.202 326.233C102.641 326.127 101.692 325.943 100.744 325.76C101.218 324.939 101.615 324.059 102.186 323.316C102.854 322.465 103.686 321.741 104.45 320.958C103.415 320.234 102.389 319.509 100.947 318.495C102.437 317.818 104.266 316.978 106.986 315.731C106.338 328.32 105.738 340.049 105.137 351.787V351.778ZM103.918 110.4C97.8595 108.584 102.795 117.018 98.8757 117.965C96.7369 117.482 94.4432 116.96 91.772 116.352C90.6203 119.327 89.5266 122.148 88.433 124.969C87.2813 119.443 91.8784 115.086 90.8235 109.038C91.0267 108.777 92.585 107.695 92.5076 106.758C91.9946 101.241 92.2462 100.826 99.0306 101.154C97.5305 102.565 96.0303 103.975 94.3463 105.55V115.637C95.5851 114.98 97.6659 114.207 97.5982 113.859C96.6884 109.212 100.337 106.004 101.169 101.918C101.692 99.3381 104.024 96.9711 104.044 94.4978C104.073 90.6139 105.98 90.8845 108.951 91.126C107.189 97.8696 105.563 104.111 103.928 110.4H103.918ZM117.09 167.692C116.877 168.378 114.119 168.262 112.851 168.474C113.916 165.141 114.612 162.948 115.309 160.745C114.951 160.552 114.593 160.349 114.245 160.156C115.483 159.673 116.722 159.18 118.503 158.484C118.058 161.914 117.961 164.929 117.09 167.692ZM118.009 145.983C115.561 142.031 115.793 135.896 118.881 134.051C118.571 138.341 118.3 142.051 118.009 145.983ZM237.593 119.144C234.486 117.926 233.305 121.859 230.615 121.752C228.795 120.863 227.915 122.554 226.656 123.201C225.718 123.201 224.769 123.201 223.83 123.201C223.308 123.366 222.795 123.53 222.272 123.685C215.275 126.486 207.01 124.641 200.593 129.607C197.07 129.839 193.518 129.317 190.247 131.578C188.205 132.988 186.976 134.235 187.131 136.911C187.305 139.935 189.279 140.543 191.544 141.055C192.202 141.2 192.87 141.287 193.547 141.365C195.638 141.597 196.819 142.534 196.673 144.862C196.538 146.978 195.193 147.074 193.538 147.49C186.715 149.2 179.388 149.596 173.717 154.552C166.932 157.257 162.655 163.702 155.957 166.532C154.815 167.363 153.673 168.184 152.541 169.015L147.973 171.431C146.154 172.107 145.302 171.749 145.012 169.537C144.286 163.991 144.498 158.533 145.621 153.084C148.447 153.557 151.012 152.871 152.996 150.852C154.738 149.084 157.4 147.026 153.073 145.046C148.573 141.935 145.466 144.64 142.437 147.625C141.44 148.437 140.443 149.239 139.447 150.05C136.553 152.543 133.63 154.997 130.785 157.538C128.975 159.151 127.204 160.32 125.036 158.137C124.474 157.296 123.913 156.446 123.352 155.605C121.523 144.369 129.333 138.824 136.369 132.418C143.221 126.187 151.438 122.313 159.054 117.405C161.193 116.023 162.761 114.149 164.097 112.023C168.104 112.564 171.065 110.555 173.833 108.043C183.201 103.773 188.65 94.2562 197.999 89.9666C200.467 89.6478 202.858 89.1261 204.861 87.4934C205.742 87.3967 206.623 87.3001 207.513 87.1939C208.461 87.1745 209.41 87.1552 210.358 87.1359C219.107 86.8267 227.818 85.8509 236.605 86.0152C242.964 86.1311 249.139 86.5272 255.1 88.8266C257.075 91.0777 259.64 89.87 261.972 90.0053C264.479 91.5414 267.266 91.4835 270.053 91.3772C280.418 97.2802 291.374 101.927 302.32 106.594C302.581 110.362 298.323 111.907 299.01 116.41C290.339 108.352 281.29 106.574 271.302 108.4C265.466 100.72 256.484 100.237 248.2 99.2125C244.309 98.7294 238.822 96.8551 235.822 102.236C229.628 105.898 222.572 106.13 215.739 107.231C215.236 107.425 214.733 107.608 214.23 107.801C209.749 109.656 205.277 111.511 200.796 113.366C195.377 111.695 191.408 115.453 186.879 117.105C185.282 117.695 182.524 117.83 183.211 120.013C183.947 122.351 186.463 120.999 188.428 120.979C193.315 120.931 196.354 116.796 200.787 116.004C203.032 115.898 205.287 115.791 207.532 115.675C208.645 115.472 209.749 115.279 210.862 115.076L218.265 113.791C220.859 114.12 223.153 113.386 225.185 111.782C228.476 111.618 231.815 111.057 235.028 111.473C236.615 111.685 239.364 110.99 239.974 113.685C240.496 115.975 240.235 118.129 237.593 119.115V119.144ZM249.226 128.718C249.1 129.027 248.974 129.336 248.848 129.646C246.593 129.027 244.338 128.399 241.406 127.597C250.61 121.974 251.645 121.762 254.065 124.544C251.703 125.037 249.294 125.539 245.567 126.322C247.6 127.655 248.413 128.187 249.226 128.718ZM326.225 132.244C324.619 135.906 321.831 132.853 319.586 132.66C318.337 132.554 317.157 131.839 315.84 132.071C297.646 127.037 278.851 125.607 260.259 122.941C257.859 122.593 255.526 122.332 253.465 121.066C251.539 119.878 247.784 120.496 247.755 117.81C247.716 114.429 251.907 115.656 253.852 114.158C256.823 111.705 260.036 113.26 263.037 113.849C271.244 115.472 279.47 116.922 287.784 117.849C291.393 119.54 295.236 117.414 298.904 118.409C303.162 119.656 307.633 119.83 311.931 120.941C315.56 122.177 319.547 122.515 322.712 124.805C325.122 126.554 327.706 128.902 326.235 132.244H326.225ZM340.433 142.292C341.226 143.693 342.436 145.819 343.762 148.166C339.726 149.036 336.31 149.77 332.545 150.582C335.274 147.712 337.752 145.104 340.433 142.292ZM341.284 202.55C338.574 199.158 335.797 195.893 333.329 192.396C332.758 191.594 332.806 189.526 333.426 188.927C334.113 188.261 336.378 188.058 336.91 188.628C338.42 190.231 339.475 192.309 340.578 194.27C341.188 195.352 341.691 196.492 342.194 197.632C342.359 198.009 342.533 198.395 342.707 198.762C343.917 197.96 345.127 197.168 346.327 196.366C347.594 198.704 346.888 199.555 341.284 202.54V202.55ZM347.604 164.581C349.569 163.006 351.533 161.431 353.701 159.692C354.979 161.547 356.102 163.17 357.689 165.47H348.611C348.282 165.17 347.943 164.88 347.614 164.581H347.604ZM352.695 195.313C352.347 194.83 352.008 194.347 351.659 193.874C355.889 190.84 360.128 187.816 364.357 184.782C364.715 185.285 365.073 185.778 365.431 186.28C361.183 189.294 356.934 192.309 352.685 195.313H352.695Z" fill="#2D00F7"/>
</svg>
